<?xml version="1.0" encoding="UTF-8"?>
<svg xmlns="http://www.w3.org/2000/svg" width="133" height="127" viewBox="19.75 0.52 133.20 126.70" fill="none" role="img" aria-label="Single adipocyte — corner">
  <title>Single adipocyte — corner</title>
  <desc>Extracted from adipocyte-pattern.svg — original procedural illustration, not derived from any photograph.</desc>
  <defs>
    <radialGradient id="cell-grad-0" gradientUnits="userSpaceOnUse" cx="85.48" cy="64.32" r="46.84">
      <stop offset="0%" stop-color="#f5d088"/>
      <stop offset="38%" stop-color="#fde8a8"/>
      <stop offset="56%" stop-color="#ffecc8"/>
      <stop offset="64%" stop-color="#fff0d8"/>
      <stop offset="72%" stop-color="#ffffff"/>
      <stop offset="78%" stop-color="#feeef2"/>
      <stop offset="88%" stop-color="#f8dcc8"/>
      <stop offset="96%" stop-color="#f0c8a0"/>
      <stop offset="100%" stop-color="#eabb90"/>
    </radialGradient>
    <filter id="soft-fill" x="-6%" y="-6%" width="112%" height="112%">
      <feGaussianBlur in="SourceGraphic" stdDeviation="0.55"/>
    </filter>
    <filter id="membrane-soften" x="-6%" y="-6%" width="112%" height="112%">
      <feGaussianBlur in="SourceGraphic" stdDeviation="0.42"/>
    </filter>
  </defs>
  <g id="adipocytes-fill" filter="url(#soft-fill)">
    <path d="M 67.20 101.64 C 65.70 101.01, 62.56 99.50, 61.15 98.72 C 59.74 97.93, 57.11 96.26, 55.90 95.36 C 54.69 94.47, 52.46 92.58, 51.45 91.58 C 50.44 90.58, 48.61 88.47, 47.80 87.36 C 46.99 86.25, 45.56 83.93, 44.95 82.71 C 44.34 81.50, 43.32 78.96, 42.91 77.64 C 42.49 76.31, 41.87 73.56, 41.66 72.13 C 41.45 70.70, 41.23 67.73, 41.22 66.19 C 41.21 64.65, 41.40 61.35, 41.57 59.82 C 41.75 58.28, 42.27 55.32, 42.61 53.90 C 42.96 52.48, 43.82 49.74, 44.34 48.44 C 44.86 47.13, 46.06 44.62, 46.75 43.42 C 47.44 42.23, 48.99 39.95, 49.84 38.87 C 50.70 37.78, 52.59 35.73, 53.62 34.76 C 54.65 33.79, 56.89 31.96, 58.09 31.11 C 59.29 30.25, 61.86 28.65, 63.24 27.91 C 64.61 27.17, 67.62 25.74, 69.07 25.16 C 70.52 24.58, 73.40 23.63, 74.84 23.26 C 76.27 22.88, 79.12 22.35, 80.54 22.19 C 81.96 22.03, 84.78 21.91, 86.18 21.96 C 87.58 22.01, 90.37 22.32, 91.75 22.58 C 93.14 22.84, 95.89 23.56, 97.26 24.03 C 98.63 24.50, 101.35 25.65, 102.71 26.32 C 104.06 27.00, 106.75 28.57, 108.09 29.46 C 109.42 30.35, 112.16 32.42, 113.40 33.43 C 114.65 34.44, 116.96 36.48, 118.04 37.52 C 119.11 38.56, 121.08 40.66, 121.99 41.73 C 122.89 42.79, 124.52 44.95, 125.25 46.05 C 125.99 47.14, 127.28 49.36, 127.84 50.48 C 128.40 51.61, 129.35 53.88, 129.75 55.04 C 130.14 56.19, 130.75 58.52, 130.97 59.70 C 131.19 60.89, 131.46 63.28, 131.51 64.49 C 131.56 65.70, 131.48 68.19, 131.36 69.39 C 131.25 70.59, 130.85 72.93, 130.58 74.07 C 130.30 75.22, 129.58 77.45, 129.14 78.54 C 128.70 79.63, 127.66 81.76, 127.06 82.79 C 126.46 83.83, 125.10 85.84, 124.34 86.83 C 123.57 87.81, 121.89 89.72, 120.96 90.64 C 120.04 91.57, 118.03 93.37, 116.95 94.24 C 115.86 95.12, 113.53 96.81, 112.28 97.63 C 111.03 98.45, 108.31 100.10, 106.97 100.79 C 105.63 101.49, 102.93 102.69, 101.57 103.20 C 100.21 103.71, 97.46 104.53, 96.07 104.85 C 94.69 105.16, 91.89 105.60, 90.49 105.73 C 89.08 105.85, 86.24 105.91, 84.80 105.85 C 83.37 105.78, 80.49 105.46, 79.03 105.21 C 77.57 104.95, 74.64 104.25, 73.16 103.81 C 71.68 103.36, 68.70 102.28, 67.20 101.64 Z" fill="url(#cell-grad-0)" opacity="0.96"/>
  </g>
  <g id="adipocytes-membranes" filter="url(#membrane-soften)">
    <path d="M 69.86 104.04 C 66.93 102.97, 60.05 99.70, 57.47 98.05 C 54.89 96.40, 50.15 92.37, 48.35 90.29 C 46.56 88.22, 43.53 83.27, 42.52 80.78 C 41.52 78.28, 40.19 72.41, 39.97 69.49 C 39.75 66.57, 40.19 59.36, 40.70 56.45 C 41.21 53.54, 43.05 47.72, 44.24 45.26 C 45.42 42.79, 48.72 37.94, 50.57 35.92 C 52.43 33.90, 57.18 30.01, 59.72 28.44 C 62.25 26.87, 68.82 23.75, 71.66 22.82 C 74.49 21.88, 80.57 20.74, 83.34 20.63 C 86.11 20.52, 92.05 21.17, 94.76 21.89 C 97.46 22.60, 103.26 25.05, 105.91 26.59 C 108.55 28.13, 114.52 32.71, 116.79 34.72 C 119.07 36.73, 123.28 41.21, 124.89 43.34 C 126.49 45.46, 129.25 50.18, 130.18 52.42 C 131.12 54.66, 132.42 59.63, 132.69 61.98 C 132.95 64.34, 132.78 69.72, 132.39 72.02 C 132.01 74.32, 130.48 79.08, 129.46 81.17 C 128.43 83.26, 125.53 87.55, 123.87 89.43 C 122.21 91.31, 117.94 95.14, 115.64 96.81 C 113.35 98.47, 107.42 102.11, 104.77 103.29 C 102.11 104.47, 96.26 106.23, 93.51 106.66 C 90.77 107.09, 84.72 107.22, 81.88 106.91 C 79.04 106.59, 72.79 105.10, 69.86 104.04 Z" fill="none" stroke="#c8949a" stroke-width="2.37" stroke-opacity="0.32" stroke-linejoin="round" stroke-linecap="round"/>
    <path d="M 69.86 104.04 C 66.93 102.97, 60.05 99.70, 57.47 98.05 C 54.89 96.40, 50.15 92.37, 48.35 90.29 C 46.56 88.22, 43.53 83.27, 42.52 80.78 C 41.52 78.28, 40.19 72.41, 39.97 69.49 C 39.75 66.57, 40.19 59.36, 40.70 56.45 C 41.21 53.54, 43.05 47.72, 44.24 45.26 C 45.42 42.79, 48.72 37.94, 50.57 35.92 C 52.43 33.90, 57.18 30.01, 59.72 28.44 C 62.25 26.87, 68.82 23.75, 71.66 22.82 C 74.49 21.88, 80.57 20.74, 83.34 20.63 C 86.11 20.52, 92.05 21.17, 94.76 21.89 C 97.46 22.60, 103.26 25.05, 105.91 26.59 C 108.55 28.13, 114.52 32.71, 116.79 34.72 C 119.07 36.73, 123.28 41.21, 124.89 43.34 C 126.49 45.46, 129.25 50.18, 130.18 52.42 C 131.12 54.66, 132.42 59.63, 132.69 61.98 C 132.95 64.34, 132.78 69.72, 132.39 72.02 C 132.01 74.32, 130.48 79.08, 129.46 81.17 C 128.43 83.26, 125.53 87.55, 123.87 89.43 C 122.21 91.31, 117.94 95.14, 115.64 96.81 C 113.35 98.47, 107.42 102.11, 104.77 103.29 C 102.11 104.47, 96.26 106.23, 93.51 106.66 C 90.77 107.09, 84.72 107.22, 81.88 106.91 C 79.04 106.59, 72.79 105.10, 69.86 104.04 Z" fill="none" stroke="#d08080" stroke-width="0.97" stroke-opacity="0.72" stroke-linejoin="round" stroke-linecap="round"/>
  </g>
  <g id="adipocytes-nuclei">
    <circle cx="117.28" cy="67.81" r="3.25" fill="#7b3f3f" opacity="0.58"/>
  </g>
</svg>
