<?xml version="1.0" encoding="UTF-8"?>
<svg xmlns="http://www.w3.org/2000/svg" width="123" height="131" viewBox="288.40 -4.85 122.77 131.37" fill="none" role="img" aria-label="Single adipocyte — upper">
  <title>Single adipocyte — upper</title>
  <desc>Extracted from adipocyte-pattern.svg — original procedural illustration, not derived from any photograph.</desc>
  <defs>
    <radialGradient id="cell-grad-3" gradientUnits="userSpaceOnUse" cx="349.83" cy="61.40" r="45.85">
      <stop offset="0%" stop-color="#f5d088"/>
      <stop offset="38%" stop-color="#fde8a8"/>
      <stop offset="56%" stop-color="#ffecc8"/>
      <stop offset="64%" stop-color="#fff0d8"/>
      <stop offset="72%" stop-color="#ffffff"/>
      <stop offset="78%" stop-color="#feeef2"/>
      <stop offset="88%" stop-color="#f8dcc8"/>
      <stop offset="96%" stop-color="#f0c8a0"/>
      <stop offset="100%" stop-color="#eabb90"/>
    </radialGradient>
    <filter id="soft-fill" x="-6%" y="-6%" width="112%" height="112%">
      <feGaussianBlur in="SourceGraphic" stdDeviation="0.55"/>
    </filter>
    <filter id="membrane-soften" x="-6%" y="-6%" width="112%" height="112%">
      <feGaussianBlur in="SourceGraphic" stdDeviation="0.42"/>
    </filter>
  </defs>
  <g id="adipocytes-fill" filter="url(#soft-fill)">
    <path d="M 333.52 101.51 C 332.21 100.96, 329.48 99.68, 328.25 98.98 C 327.01 98.29, 324.70 96.75, 323.63 95.92 C 322.56 95.09, 320.58 93.29, 319.67 92.32 C 318.76 91.35, 317.11 89.28, 316.37 88.18 C 315.63 87.08, 314.31 84.74, 313.73 83.50 C 313.15 82.27, 312.16 79.66, 311.75 78.29 C 311.33 76.92, 310.67 74.04, 310.42 72.54 C 310.17 71.03, 309.84 67.89, 309.76 66.25 C 309.67 64.61, 309.66 61.07, 309.75 59.42 C 309.84 57.77, 310.19 54.58, 310.46 53.04 C 310.72 51.51, 311.43 48.55, 311.87 47.13 C 312.31 45.71, 313.37 42.98, 313.99 41.67 C 314.61 40.36, 316.02 37.86, 316.82 36.67 C 317.62 35.47, 319.39 33.20, 320.36 32.12 C 321.34 31.04, 323.46 29.00, 324.61 28.03 C 325.76 27.07, 328.24 25.25, 329.57 24.40 C 330.90 23.55, 333.84 21.91, 335.24 21.22 C 336.64 20.53, 339.39 19.36, 340.74 18.88 C 342.10 18.39, 344.77 17.64, 346.08 17.36 C 347.39 17.09, 349.98 16.74, 351.25 16.68 C 352.52 16.61, 355.03 16.68, 356.26 16.82 C 357.49 16.96, 359.91 17.45, 361.10 17.80 C 362.28 18.15, 364.62 19.05, 365.77 19.61 C 366.92 20.16, 369.17 21.48, 370.28 22.24 C 371.38 23.01, 373.60 24.80, 374.62 25.71 C 375.64 26.62, 377.54 28.53, 378.42 29.53 C 379.30 30.53, 380.93 32.62, 381.68 33.70 C 382.43 34.79, 383.79 37.05, 384.40 38.22 C 385.01 39.40, 386.10 41.83, 386.58 43.09 C 387.05 44.36, 387.87 46.97, 388.21 48.32 C 388.55 49.67, 389.10 52.45, 389.31 53.89 C 389.51 55.33, 389.79 58.29, 389.86 59.81 C 389.93 61.34, 389.95 64.57, 389.88 66.09 C 389.80 67.60, 389.51 70.52, 389.29 71.93 C 389.07 73.33, 388.49 76.03, 388.12 77.33 C 387.75 78.62, 386.86 81.11, 386.35 82.30 C 385.83 83.48, 384.65 85.75, 383.98 86.83 C 383.32 87.90, 381.84 89.95, 381.03 90.92 C 380.21 91.89, 378.43 93.72, 377.47 94.58 C 376.51 95.44, 374.44 97.05, 373.33 97.80 C 372.21 98.55, 369.78 99.98, 368.58 100.59 C 367.39 101.20, 364.99 102.27, 363.78 102.71 C 362.56 103.16, 360.13 103.89, 358.90 104.17 C 357.67 104.46, 355.20 104.85, 353.96 104.97 C 352.71 105.08, 350.21 105.15, 348.95 105.10 C 347.69 105.05, 345.15 104.78, 343.87 104.57 C 342.60 104.35, 340.03 103.75, 338.73 103.37 C 337.44 102.99, 334.83 102.06, 333.52 101.51 Z" fill="url(#cell-grad-3)" opacity="0.96"/>
  </g>
  <g id="adipocytes-membranes" filter="url(#membrane-soften)">
    <path d="M 335.82 103.81 C 333.25 102.89, 327.27 100.14, 325.00 98.63 C 322.73 97.12, 318.51 93.29, 316.88 91.25 C 315.26 89.21, 312.45 84.23, 311.47 81.66 C 310.49 79.09, 309.08 72.96, 308.76 69.87 C 308.43 66.77, 308.40 59.00, 308.75 55.87 C 309.09 52.73, 310.60 46.43, 311.64 43.74 C 312.69 41.05, 315.70 35.72, 317.45 33.48 C 319.19 31.25, 323.72 26.89, 326.16 25.10 C 328.60 23.31, 335.07 19.74, 337.78 18.59 C 340.49 17.43, 346.18 15.82, 348.72 15.48 C 351.26 15.15, 356.60 15.30, 358.98 15.78 C 361.36 16.26, 366.35 18.19, 368.56 19.49 C 370.78 20.78, 375.60 24.72, 377.47 26.60 C 379.34 28.48, 382.81 32.92, 384.15 35.15 C 385.49 37.37, 387.81 42.56, 388.61 45.13 C 389.42 47.70, 390.59 53.64, 390.86 56.56 C 391.13 59.47, 391.17 66.55, 390.88 69.42 C 390.60 72.29, 389.35 78.05, 388.47 80.50 C 387.60 82.94, 385.08 87.77, 383.63 89.79 C 382.17 91.80, 378.38 95.70, 376.34 97.29 C 374.30 98.87, 368.99 101.96, 366.62 103.00 C 364.26 104.05, 359.06 105.60, 356.63 105.99 C 354.20 106.38, 348.86 106.52, 346.36 106.26 C 343.86 106.00, 338.38 104.72, 335.82 103.81 Z" fill="none" stroke="#c8949a" stroke-width="2.37" stroke-opacity="0.32" stroke-linejoin="round" stroke-linecap="round"/>
    <path d="M 335.82 103.81 C 333.25 102.89, 327.27 100.14, 325.00 98.63 C 322.73 97.12, 318.51 93.29, 316.88 91.25 C 315.26 89.21, 312.45 84.23, 311.47 81.66 C 310.49 79.09, 309.08 72.96, 308.76 69.87 C 308.43 66.77, 308.40 59.00, 308.75 55.87 C 309.09 52.73, 310.60 46.43, 311.64 43.74 C 312.69 41.05, 315.70 35.72, 317.45 33.48 C 319.19 31.25, 323.72 26.89, 326.16 25.10 C 328.60 23.31, 335.07 19.74, 337.78 18.59 C 340.49 17.43, 346.18 15.82, 348.72 15.48 C 351.26 15.15, 356.60 15.30, 358.98 15.78 C 361.36 16.26, 366.35 18.19, 368.56 19.49 C 370.78 20.78, 375.60 24.72, 377.47 26.60 C 379.34 28.48, 382.81 32.92, 384.15 35.15 C 385.49 37.37, 387.81 42.56, 388.61 45.13 C 389.42 47.70, 390.59 53.64, 390.86 56.56 C 391.13 59.47, 391.17 66.55, 390.88 69.42 C 390.60 72.29, 389.35 78.05, 388.47 80.50 C 387.60 82.94, 385.08 87.77, 383.63 89.79 C 382.17 91.80, 378.38 95.70, 376.34 97.29 C 374.30 98.87, 368.99 101.96, 366.62 103.00 C 364.26 104.05, 359.06 105.60, 356.63 105.99 C 354.20 106.38, 348.86 106.52, 346.36 106.26 C 343.86 106.00, 338.38 104.72, 335.82 103.81 Z" fill="none" stroke="#d08080" stroke-width="0.97" stroke-opacity="0.72" stroke-linejoin="round" stroke-linecap="round"/>
  </g>
  <g id="adipocytes-nuclei">
    <circle cx="353.53" cy="30.10" r="3.18" fill="#7b3f3f" opacity="0.58"/>
  </g>
</svg>
