<?xml version="1.0" encoding="UTF-8"?>
<svg xmlns="http://www.w3.org/2000/svg" width="124" height="134" viewBox="378.75 304.92 123.95 133.81" fill="none" role="img" aria-label="Single adipocyte — center">
  <title>Single adipocyte — center</title>
  <desc>Extracted from adipocyte-pattern.svg — original procedural illustration, not derived from any photograph.</desc>
  <defs>
    <radialGradient id="cell-grad-47" gradientUnits="userSpaceOnUse" cx="440.78" cy="371.97" r="47.23">
      <stop offset="0%" stop-color="#f5d088"/>
      <stop offset="38%" stop-color="#fde8a8"/>
      <stop offset="56%" stop-color="#ffecc8"/>
      <stop offset="64%" stop-color="#fff0d8"/>
      <stop offset="72%" stop-color="#ffffff"/>
      <stop offset="78%" stop-color="#feeef2"/>
      <stop offset="88%" stop-color="#f8dcc8"/>
      <stop offset="96%" stop-color="#f0c8a0"/>
      <stop offset="100%" stop-color="#eabb90"/>
    </radialGradient>
    <filter id="soft-fill" x="-6%" y="-6%" width="112%" height="112%">
      <feGaussianBlur in="SourceGraphic" stdDeviation="0.55"/>
    </filter>
    <filter id="membrane-soften" x="-6%" y="-6%" width="112%" height="112%">
      <feGaussianBlur in="SourceGraphic" stdDeviation="0.42"/>
    </filter>
  </defs>
  <g id="adipocytes-fill" filter="url(#soft-fill)">
    <path d="M 418.30 412.44 C 417.17 411.77, 414.89 410.22, 413.85 409.39 C 412.81 408.57, 410.90 406.81, 410.01 405.87 C 409.13 404.93, 407.52 402.93, 406.79 401.87 C 406.07 400.82, 404.76 398.58, 404.19 397.40 C 403.62 396.22, 402.62 393.75, 402.20 392.45 C 401.78 391.15, 401.10 388.44, 400.83 387.02 C 400.56 385.60, 400.19 382.65, 400.07 381.11 C 399.96 379.58, 399.89 376.39, 399.93 374.73 C 399.98 373.08, 400.22 369.52, 400.41 367.87 C 400.60 366.22, 401.12 363.04, 401.45 361.51 C 401.78 359.98, 402.58 357.04, 403.05 355.64 C 403.52 354.23, 404.60 351.54, 405.21 350.26 C 405.83 348.98, 407.19 346.53, 407.94 345.38 C 408.69 344.22, 410.34 342.02, 411.23 340.99 C 412.12 339.95, 414.05 338.00, 415.08 337.09 C 416.11 336.18, 418.32 334.48, 419.49 333.69 C 420.66 332.90, 423.22 331.42, 424.47 330.78 C 425.71 330.15, 428.21 329.05, 429.45 328.59 C 430.70 328.12, 433.20 327.38, 434.45 327.10 C 435.71 326.81, 438.21 326.42, 439.47 326.31 C 440.72 326.21, 443.24 326.17, 444.49 326.24 C 445.75 326.31, 448.27 326.63, 449.53 326.88 C 450.79 327.13, 453.32 327.80, 454.59 328.22 C 455.85 328.65, 458.38 329.68, 459.65 330.28 C 460.92 330.88, 463.54 332.28, 464.73 333.04 C 465.91 333.80, 468.12 335.47, 469.13 336.37 C 470.15 337.28, 472.02 339.23, 472.87 340.28 C 473.72 341.32, 475.25 343.56, 475.94 344.75 C 476.62 345.94, 477.82 348.46, 478.33 349.79 C 478.85 351.12, 479.71 353.93, 480.06 355.40 C 480.40 356.87, 480.93 359.96, 481.11 361.58 C 481.29 363.20, 481.48 366.57, 481.49 368.33 C 481.51 370.09, 481.36 373.89, 481.21 375.65 C 481.05 377.41, 480.56 380.78, 480.23 382.40 C 479.90 384.01, 479.07 387.10, 478.57 388.57 C 478.07 390.04, 476.89 392.84, 476.22 394.17 C 475.54 395.50, 474.03 398.01, 473.18 399.19 C 472.33 400.38, 470.47 402.60, 469.45 403.64 C 468.44 404.68, 466.23 406.62, 465.04 407.52 C 463.85 408.42, 461.30 410.07, 459.94 410.82 C 458.58 411.57, 455.58 412.96, 454.15 413.55 C 452.72 414.14, 449.91 415.14, 448.53 415.55 C 447.14 415.97, 444.41 416.61, 443.07 416.84 C 441.73 417.07, 439.08 417.35, 437.78 417.40 C 436.48 417.45, 433.92 417.37, 432.66 417.24 C 431.40 417.11, 428.93 416.67, 427.71 416.36 C 426.49 416.05, 424.10 415.25, 422.92 414.76 C 421.75 414.27, 419.44 413.11, 418.30 412.44 Z" fill="url(#cell-grad-47)" opacity="0.96"/>
  </g>
  <g id="adipocytes-membranes" filter="url(#membrane-soften)">
    <path d="M 420.10 414.86 C 417.83 413.72, 412.88 410.37, 411.00 408.64 C 409.12 406.91, 405.70 402.67, 404.42 400.47 C 403.15 398.28, 401.03 393.02, 400.36 390.36 C 399.69 387.70, 398.89 381.42, 398.82 378.29 C 398.75 375.16, 399.28 367.40, 399.79 364.28 C 400.30 361.16, 402.00 354.92, 403.06 352.29 C 404.12 349.65, 407.02 344.46, 408.63 342.31 C 410.24 340.16, 414.33 336.02, 416.49 334.36 C 418.66 332.69, 424.21 329.50, 426.66 328.42 C 429.10 327.34, 434.42 325.76, 436.87 325.37 C 439.33 324.99, 444.67 324.92, 447.14 325.23 C 449.61 325.54, 454.98 326.97, 457.46 327.98 C 459.94 328.98, 465.67 331.98, 467.83 333.62 C 469.99 335.25, 473.96 339.40, 475.47 341.59 C 476.97 343.78, 479.51 349.14, 480.36 351.89 C 481.20 354.64, 482.32 361.21, 482.51 364.51 C 482.70 367.82, 482.40 376.16, 481.93 379.47 C 481.45 382.78, 479.68 389.33, 478.53 392.08 C 477.38 394.82, 474.15 400.16, 472.32 402.34 C 470.49 404.52, 465.81 408.64, 463.30 410.26 C 460.80 411.88, 454.23 414.85, 451.48 415.83 C 448.72 416.82, 442.93 418.18, 440.33 418.46 C 437.74 418.73, 432.30 418.56, 429.87 418.13 C 427.45 417.70, 422.36 416.00, 420.10 414.86 Z" fill="none" stroke="#c8949a" stroke-width="2.35" stroke-opacity="0.32" stroke-linejoin="round" stroke-linecap="round"/>
    <path d="M 420.10 414.86 C 417.83 413.72, 412.88 410.37, 411.00 408.64 C 409.12 406.91, 405.70 402.67, 404.42 400.47 C 403.15 398.28, 401.03 393.02, 400.36 390.36 C 399.69 387.70, 398.89 381.42, 398.82 378.29 C 398.75 375.16, 399.28 367.40, 399.79 364.28 C 400.30 361.16, 402.00 354.92, 403.06 352.29 C 404.12 349.65, 407.02 344.46, 408.63 342.31 C 410.24 340.16, 414.33 336.02, 416.49 334.36 C 418.66 332.69, 424.21 329.50, 426.66 328.42 C 429.10 327.34, 434.42 325.76, 436.87 325.37 C 439.33 324.99, 444.67 324.92, 447.14 325.23 C 449.61 325.54, 454.98 326.97, 457.46 327.98 C 459.94 328.98, 465.67 331.98, 467.83 333.62 C 469.99 335.25, 473.96 339.40, 475.47 341.59 C 476.97 343.78, 479.51 349.14, 480.36 351.89 C 481.20 354.64, 482.32 361.21, 482.51 364.51 C 482.70 367.82, 482.40 376.16, 481.93 379.47 C 481.45 382.78, 479.68 389.33, 478.53 392.08 C 477.38 394.82, 474.15 400.16, 472.32 402.34 C 470.49 404.52, 465.81 408.64, 463.30 410.26 C 460.80 411.88, 454.23 414.85, 451.48 415.83 C 448.72 416.82, 442.93 418.18, 440.33 418.46 C 437.74 418.73, 432.30 418.56, 429.87 418.13 C 427.45 417.70, 422.36 416.00, 420.10 414.86 Z" fill="none" stroke="#d08080" stroke-width="0.95" stroke-opacity="0.72" stroke-linejoin="round" stroke-linecap="round"/>
  </g>
  <g id="adipocytes-nuclei">
    <circle cx="431.23" cy="400.17" r="3.28" fill="#7b3f3f" opacity="0.58"/>
  </g>
</svg>
