<?xml version="1.0" encoding="UTF-8"?>
<svg xmlns="http://www.w3.org/2000/svg" width="128" height="130" viewBox="422.29 530.22 127.60 130.15" fill="none" role="img" aria-label="Single adipocyte — lower">
  <title>Single adipocyte — lower</title>
  <desc>Extracted from adipocyte-pattern.svg — original procedural illustration, not derived from any photograph.</desc>
  <defs>
    <radialGradient id="cell-grad-80" gradientUnits="userSpaceOnUse" cx="487.20" cy="595.52" r="46.88">
      <stop offset="0%" stop-color="#f5d088"/>
      <stop offset="38%" stop-color="#fde8a8"/>
      <stop offset="56%" stop-color="#ffecc8"/>
      <stop offset="64%" stop-color="#fff0d8"/>
      <stop offset="72%" stop-color="#ffffff"/>
      <stop offset="78%" stop-color="#feeef2"/>
      <stop offset="88%" stop-color="#f8dcc8"/>
      <stop offset="96%" stop-color="#f0c8a0"/>
      <stop offset="100%" stop-color="#eabb90"/>
    </radialGradient>
    <filter id="soft-fill" x="-6%" y="-6%" width="112%" height="112%">
      <feGaussianBlur in="SourceGraphic" stdDeviation="0.55"/>
    </filter>
    <filter id="membrane-soften" x="-6%" y="-6%" width="112%" height="112%">
      <feGaussianBlur in="SourceGraphic" stdDeviation="0.42"/>
    </filter>
  </defs>
  <g id="adipocytes-fill" filter="url(#soft-fill)">
    <path d="M 464.49 634.19 C 463.34 633.54, 461.04 632.02, 459.98 631.24 C 458.92 630.46, 456.94 628.82, 456.01 627.96 C 455.09 627.10, 453.38 625.30, 452.59 624.36 C 451.80 623.42, 450.36 621.46, 449.71 620.44 C 449.06 619.42, 447.89 617.30, 447.37 616.20 C 446.85 615.10, 445.95 612.81, 445.57 611.63 C 445.19 610.45, 444.56 608.01, 444.32 606.74 C 444.07 605.48, 443.71 602.88, 443.60 601.53 C 443.49 600.19, 443.38 597.36, 443.43 596.00 C 443.48 594.64, 443.77 591.97, 444.01 590.66 C 444.24 589.35, 444.91 586.78, 445.33 585.52 C 445.75 584.26, 446.79 581.79, 447.40 580.58 C 448.01 579.36, 449.42 576.99, 450.22 575.82 C 451.02 574.66, 452.80 572.38, 453.78 571.27 C 454.77 570.16, 456.92 567.98, 458.10 566.91 C 459.27 565.85, 461.80 563.76, 463.16 562.75 C 464.51 561.73, 467.52 559.67, 468.96 558.78 C 470.41 557.90, 473.27 556.34, 474.69 555.66 C 476.11 554.99, 478.94 553.86, 480.34 553.40 C 481.74 552.94, 484.52 552.23, 485.91 551.99 C 487.29 551.74, 490.03 551.46, 491.39 551.43 C 492.76 551.39, 495.46 551.54, 496.80 551.72 C 498.14 551.90, 500.81 552.47, 502.13 552.86 C 503.45 553.25, 506.07 554.25, 507.37 554.86 C 508.68 555.46, 511.34 556.92, 512.54 557.70 C 513.74 558.48, 515.97 560.17, 517.00 561.09 C 518.02 562.00, 519.89 563.96, 520.74 565.01 C 521.59 566.06, 523.10 568.29, 523.77 569.48 C 524.44 570.66, 525.60 573.16, 526.10 574.48 C 526.59 575.80, 527.39 578.57, 527.71 580.03 C 528.02 581.48, 528.47 584.52, 528.61 586.11 C 528.74 587.70, 528.84 591.01, 528.79 592.73 C 528.75 594.46, 528.48 598.18, 528.27 599.90 C 528.06 601.61, 527.47 604.90, 527.09 606.47 C 526.72 608.04, 525.80 611.03, 525.26 612.45 C 524.72 613.88, 523.47 616.57, 522.77 617.85 C 522.06 619.12, 520.49 621.52, 519.62 622.65 C 518.75 623.78, 516.85 625.89, 515.82 626.87 C 514.78 627.85, 512.55 629.66, 511.35 630.49 C 510.16 631.32, 507.60 632.84, 506.24 633.53 C 504.88 634.21, 501.89 635.45, 500.47 635.97 C 499.04 636.50, 496.23 637.39, 494.85 637.74 C 493.47 638.10, 490.74 638.65, 489.39 638.84 C 488.05 639.03, 485.40 639.24, 484.10 639.26 C 482.79 639.28, 480.22 639.15, 478.96 639.01 C 477.69 638.86, 475.20 638.39, 473.97 638.08 C 472.75 637.76, 470.34 636.96, 469.15 636.47 C 467.97 635.99, 465.63 634.85, 464.49 634.19 Z" fill="url(#cell-grad-80)" opacity="0.96"/>
  </g>
  <g id="adipocytes-membranes" filter="url(#membrane-soften)">
    <path d="M 466.38 636.38 C 464.10 635.27, 459.14 631.97, 457.20 630.37 C 455.27 628.77, 451.64 624.96, 450.24 623.04 C 448.83 621.13, 446.35 616.63, 445.47 614.40 C 444.60 612.17, 443.27 607.00, 442.92 604.45 C 442.57 601.91, 442.29 595.80, 442.57 593.19 C 442.85 590.59, 444.25 585.14, 445.26 582.73 C 446.27 580.31, 449.26 575.28, 451.00 573.06 C 452.74 570.83, 457.30 566.22, 459.78 564.19 C 462.25 562.15, 468.80 557.63, 471.60 556.11 C 474.39 554.59, 480.37 552.19, 483.09 551.50 C 485.81 550.81, 491.62 550.22, 494.26 550.36 C 496.90 550.50, 502.54 551.71, 505.10 552.69 C 507.67 553.66, 513.44 556.83, 515.62 558.48 C 517.79 560.13, 521.76 564.29, 523.24 566.47 C 524.72 568.65, 527.18 573.95, 527.97 576.66 C 528.75 579.36, 529.70 585.80, 529.80 589.04 C 529.89 592.27, 529.31 600.41, 528.73 603.62 C 528.16 606.83, 526.22 613.16, 525.00 615.80 C 523.78 618.43, 520.45 623.52, 518.59 625.58 C 516.73 627.64, 512.01 631.47, 509.51 632.96 C 507.01 634.44, 500.51 637.07, 497.76 637.93 C 495.02 638.80, 489.24 639.96, 486.66 640.16 C 484.07 640.37, 478.63 640.10, 476.20 639.65 C 473.76 639.19, 468.66 637.49, 466.38 636.38 Z" fill="none" stroke="#c8949a" stroke-width="2.34" stroke-opacity="0.32" stroke-linejoin="round" stroke-linecap="round"/>
    <path d="M 466.38 636.38 C 464.10 635.27, 459.14 631.97, 457.20 630.37 C 455.27 628.77, 451.64 624.96, 450.24 623.04 C 448.83 621.13, 446.35 616.63, 445.47 614.40 C 444.60 612.17, 443.27 607.00, 442.92 604.45 C 442.57 601.91, 442.29 595.80, 442.57 593.19 C 442.85 590.59, 444.25 585.14, 445.26 582.73 C 446.27 580.31, 449.26 575.28, 451.00 573.06 C 452.74 570.83, 457.30 566.22, 459.78 564.19 C 462.25 562.15, 468.80 557.63, 471.60 556.11 C 474.39 554.59, 480.37 552.19, 483.09 551.50 C 485.81 550.81, 491.62 550.22, 494.26 550.36 C 496.90 550.50, 502.54 551.71, 505.10 552.69 C 507.67 553.66, 513.44 556.83, 515.62 558.48 C 517.79 560.13, 521.76 564.29, 523.24 566.47 C 524.72 568.65, 527.18 573.95, 527.97 576.66 C 528.75 579.36, 529.70 585.80, 529.80 589.04 C 529.89 592.27, 529.31 600.41, 528.73 603.62 C 528.16 606.83, 526.22 613.16, 525.00 615.80 C 523.78 618.43, 520.45 623.52, 518.59 625.58 C 516.73 627.64, 512.01 631.47, 509.51 632.96 C 507.01 634.44, 500.51 637.07, 497.76 637.93 C 495.02 638.80, 489.24 639.96, 486.66 640.16 C 484.07 640.37, 478.63 640.10, 476.20 639.65 C 473.76 639.19, 468.66 637.49, 466.38 636.38 Z" fill="none" stroke="#d08080" stroke-width="0.94" stroke-opacity="0.72" stroke-linejoin="round" stroke-linecap="round"/>
  </g>
  <g id="adipocytes-nuclei">
    <circle cx="507.72" cy="570.23" r="3.26" fill="#7b3f3f" opacity="0.58"/>
  </g>
</svg>
