<?xml version="1.0" encoding="UTF-8"?>
<svg xmlns="http://www.w3.org/2000/svg" width="216" height="131" viewBox="116.53 461.41 215.52 130.59" fill="none" role="img" aria-label="Two adipocytes — horizontal">
  <title>Two adipocytes — horizontal</title>
  <desc>Extracted from adipocyte-pattern.svg — original procedural illustration, not derived from any photograph.</desc>
  <defs>
    <radialGradient id="cell-grad-66" gradientUnits="userSpaceOnUse" cx="179.46" cy="526.63" r="46.40">
      <stop offset="0%" stop-color="#f5d088"/>
      <stop offset="38%" stop-color="#fde8a8"/>
      <stop offset="56%" stop-color="#ffecc8"/>
      <stop offset="64%" stop-color="#fff0d8"/>
      <stop offset="72%" stop-color="#ffffff"/>
      <stop offset="78%" stop-color="#feeef2"/>
      <stop offset="88%" stop-color="#f8dcc8"/>
      <stop offset="96%" stop-color="#f0c8a0"/>
      <stop offset="100%" stop-color="#eabb90"/>
    </radialGradient>
    <radialGradient id="cell-grad-67" gradientUnits="userSpaceOnUse" cx="267.88" cy="526.58" r="46.93">
      <stop offset="0%" stop-color="#f5d088"/>
      <stop offset="38%" stop-color="#fde8a8"/>
      <stop offset="56%" stop-color="#ffecc8"/>
      <stop offset="64%" stop-color="#fff0d8"/>
      <stop offset="72%" stop-color="#ffffff"/>
      <stop offset="78%" stop-color="#feeef2"/>
      <stop offset="88%" stop-color="#f8dcc8"/>
      <stop offset="96%" stop-color="#f0c8a0"/>
      <stop offset="100%" stop-color="#eabb90"/>
    </radialGradient>
    <filter id="soft-fill" x="-6%" y="-6%" width="112%" height="112%">
      <feGaussianBlur in="SourceGraphic" stdDeviation="0.55"/>
    </filter>
    <filter id="membrane-soften" x="-6%" y="-6%" width="112%" height="112%">
      <feGaussianBlur in="SourceGraphic" stdDeviation="0.42"/>
    </filter>
  </defs>
  <g id="adipocytes-fill" filter="url(#soft-fill)">
    <path d="M 162.04 565.16 C 160.65 564.50, 157.76 562.94, 156.45 562.13 C 155.14 561.31, 152.71 559.57, 151.58 558.64 C 150.46 557.71, 148.39 555.73, 147.44 554.68 C 146.50 553.64, 144.78 551.43, 144.02 550.27 C 143.25 549.11, 141.91 546.68, 141.32 545.40 C 140.74 544.13, 139.75 541.46, 139.34 540.07 C 138.94 538.68, 138.31 535.79, 138.09 534.29 C 137.87 532.78, 137.60 529.66, 137.56 528.04 C 137.51 526.42, 137.63 522.94, 137.75 521.33 C 137.86 519.72, 138.21 516.64, 138.45 515.17 C 138.69 513.70, 139.30 510.89, 139.67 509.56 C 140.04 508.22, 140.91 505.69, 141.41 504.49 C 141.91 503.29, 143.03 501.02, 143.66 499.96 C 144.29 498.90, 145.67 496.91, 146.43 495.98 C 147.18 495.06, 148.82 493.34, 149.71 492.55 C 150.59 491.76, 152.49 490.31, 153.51 489.66 C 154.52 489.00, 156.71 487.82, 157.82 487.32 C 158.93 486.81, 161.21 485.97, 162.38 485.62 C 163.55 485.28, 165.95 484.76, 167.19 484.58 C 168.42 484.41, 170.95 484.21, 172.24 484.20 C 173.53 484.18, 176.18 484.32, 177.54 484.46 C 178.90 484.61, 181.67 485.07, 183.09 485.38 C 184.51 485.69, 187.40 486.48, 188.88 486.95 C 190.36 487.42, 193.38 488.54, 194.92 489.17 C 196.47 489.81, 199.74 491.28, 201.21 492.05 C 202.69 492.81, 205.44 494.44, 206.71 495.30 C 207.99 496.15, 210.34 497.97, 211.42 498.92 C 212.50 499.87, 214.46 501.87, 215.35 502.92 C 216.23 503.97, 217.80 506.15, 218.48 507.29 C 219.17 508.43, 220.34 510.81, 220.83 512.04 C 221.31 513.28, 222.09 515.84, 222.38 517.17 C 222.68 518.50, 223.06 521.25, 223.15 522.67 C 223.25 524.09, 223.22 527.11, 223.13 528.54 C 223.05 529.97, 222.72 532.75, 222.47 534.10 C 222.22 535.45, 221.57 538.07, 221.16 539.34 C 220.75 540.61, 219.77 543.07, 219.20 544.26 C 218.63 545.45, 217.33 547.75, 216.60 548.87 C 215.87 549.98, 214.25 552.12, 213.35 553.15 C 212.46 554.19, 210.51 556.17, 209.46 557.12 C 208.41 558.08, 206.14 559.90, 204.92 560.78 C 203.71 561.65, 201.04 563.38, 199.74 564.11 C 198.44 564.84, 195.82 566.11, 194.50 566.65 C 193.19 567.18, 190.55 568.06, 189.22 568.39 C 187.89 568.73, 185.22 569.20, 183.88 569.34 C 182.54 569.47, 179.85 569.55, 178.50 569.49 C 177.14 569.43, 174.43 569.10, 173.06 568.84 C 171.70 568.58, 168.95 567.86, 167.57 567.40 C 166.20 566.94, 163.43 565.82, 162.04 565.16 Z" fill="url(#cell-grad-66)" opacity="0.96"/>
    <path d="M 250.07 565.11 C 248.66 564.32, 245.75 562.46, 244.43 561.53 C 243.11 560.60, 240.64 558.66, 239.50 557.66 C 238.35 556.66, 236.24 554.58, 235.27 553.51 C 234.30 552.44, 232.55 550.22, 231.76 549.08 C 230.96 547.94, 229.56 545.58, 228.95 544.37 C 228.33 543.15, 227.28 540.65, 226.84 539.37 C 226.41 538.09, 225.71 535.45, 225.45 534.09 C 225.19 532.74, 224.84 529.96, 224.76 528.53 C 224.68 527.11, 224.70 524.11, 224.78 522.69 C 224.85 521.27, 225.14 518.51, 225.36 517.18 C 225.57 515.84, 226.14 513.26, 226.50 512.01 C 226.85 510.76, 227.70 508.34, 228.19 507.17 C 228.69 506.00, 229.82 503.75, 230.45 502.67 C 231.08 501.58, 232.49 499.50, 233.27 498.50 C 234.04 497.50, 235.73 495.59, 236.64 494.67 C 237.55 493.75, 239.52 492.01, 240.58 491.17 C 241.63 490.34, 243.92 488.71, 245.07 488.01 C 246.22 487.32, 248.56 486.10, 249.75 485.59 C 250.94 485.07, 253.37 484.23, 254.61 483.90 C 255.85 483.56, 258.37 483.09, 259.66 482.94 C 260.94 482.79, 263.56 482.68, 264.89 482.71 C 266.22 482.75, 268.93 483.01, 270.31 483.23 C 271.68 483.45, 274.48 484.07, 275.91 484.47 C 277.33 484.87, 280.22 485.86, 281.69 486.45 C 283.16 487.04, 286.25 488.43, 287.66 489.16 C 289.07 489.90, 291.71 491.49, 292.95 492.34 C 294.18 493.19, 296.48 495.01, 297.55 495.97 C 298.61 496.94, 300.57 498.99, 301.46 500.07 C 302.35 501.15, 303.97 503.42, 304.69 504.62 C 305.41 505.82, 306.69 508.32, 307.24 509.63 C 307.79 510.94, 308.72 513.68, 309.10 515.11 C 309.48 516.53, 310.06 519.50, 310.27 521.04 C 310.48 522.58, 310.73 525.88, 310.76 527.43 C 310.80 528.98, 310.68 532.00, 310.53 533.46 C 310.38 534.92, 309.89 537.75, 309.56 539.13 C 309.23 540.50, 308.38 543.15, 307.87 544.43 C 307.35 545.71, 306.14 548.17, 305.45 549.36 C 304.75 550.55, 303.17 552.84, 302.30 553.94 C 301.42 555.03, 299.48 557.14, 298.42 558.15 C 297.36 559.15, 295.05 561.07, 293.81 561.99 C 292.57 562.91, 289.81 564.71, 288.48 565.47 C 287.14 566.23, 284.45 567.53, 283.10 568.07 C 281.76 568.61, 279.05 569.47, 277.69 569.78 C 276.33 570.10, 273.61 570.52, 272.24 570.62 C 270.88 570.71, 268.13 570.69, 266.76 570.56 C 265.38 570.44, 262.62 569.97, 261.23 569.63 C 259.85 569.29, 257.06 568.38, 255.67 567.81 C 254.27 567.25, 251.47 565.90, 250.07 565.11 Z" fill="url(#cell-grad-67)" opacity="0.96"/>
  </g>
  <g id="adipocytes-membranes" filter="url(#membrane-soften)">
    <path d="M 164.60 567.32 C 161.90 566.23, 155.62 562.86, 153.24 561.16 C 150.87 559.45, 146.49 555.28, 144.82 553.13 C 143.15 550.97, 140.30 545.83, 139.34 543.23 C 138.37 540.63, 137.05 534.51, 136.79 531.47 C 136.53 528.42, 136.83 520.85, 137.17 517.84 C 137.52 514.84, 138.81 508.90, 139.65 506.43 C 140.50 503.96, 142.88 499.18, 144.23 497.24 C 145.58 495.29, 149.05 491.67, 150.90 490.26 C 152.75 488.85, 157.44 486.32, 159.66 485.49 C 161.89 484.67, 166.97 483.57, 169.43 483.38 C 171.90 483.19, 177.50 483.48, 180.20 483.92 C 182.91 484.37, 189.03 486.03, 191.98 487.11 C 194.92 488.20, 202.07 491.37, 204.76 492.95 C 207.44 494.54, 212.42 498.37, 214.33 500.32 C 216.24 502.27, 219.55 506.89, 220.70 509.21 C 221.84 511.52, 223.49 516.94, 223.86 519.62 C 224.24 522.30, 224.15 528.85, 223.82 531.56 C 223.50 534.27, 222.11 539.80, 221.16 542.20 C 220.21 544.61, 217.46 549.47, 215.87 551.56 C 214.29 553.65, 210.18 557.85, 207.96 559.63 C 205.75 561.41, 199.98 565.17, 197.43 566.40 C 194.88 567.64, 189.29 569.48, 186.69 569.95 C 184.09 570.41, 178.40 570.57, 175.75 570.25 C 173.09 569.94, 167.30 568.41, 164.60 567.32 Z" fill="none" stroke="#c8949a" stroke-width="2.33" stroke-opacity="0.32" stroke-linejoin="round" stroke-linecap="round"/>
    <path d="M 164.60 567.32 C 161.90 566.23, 155.62 562.86, 153.24 561.16 C 150.87 559.45, 146.49 555.28, 144.82 553.13 C 143.15 550.97, 140.30 545.83, 139.34 543.23 C 138.37 540.63, 137.05 534.51, 136.79 531.47 C 136.53 528.42, 136.83 520.85, 137.17 517.84 C 137.52 514.84, 138.81 508.90, 139.65 506.43 C 140.50 503.96, 142.88 499.18, 144.23 497.24 C 145.58 495.29, 149.05 491.67, 150.90 490.26 C 152.75 488.85, 157.44 486.32, 159.66 485.49 C 161.89 484.67, 166.97 483.57, 169.43 483.38 C 171.90 483.19, 177.50 483.48, 180.20 483.92 C 182.91 484.37, 189.03 486.03, 191.98 487.11 C 194.92 488.20, 202.07 491.37, 204.76 492.95 C 207.44 494.54, 212.42 498.37, 214.33 500.32 C 216.24 502.27, 219.55 506.89, 220.70 509.21 C 221.84 511.52, 223.49 516.94, 223.86 519.62 C 224.24 522.30, 224.15 528.85, 223.82 531.56 C 223.50 534.27, 222.11 539.80, 221.16 542.20 C 220.21 544.61, 217.46 549.47, 215.87 551.56 C 214.29 553.65, 210.18 557.85, 207.96 559.63 C 205.75 561.41, 199.98 565.17, 197.43 566.40 C 194.88 567.64, 189.29 569.48, 186.69 569.95 C 184.09 570.41, 178.40 570.57, 175.75 570.25 C 173.09 569.94, 167.30 568.41, 164.60 567.32 Z" fill="none" stroke="#d08080" stroke-width="0.93" stroke-opacity="0.72" stroke-linejoin="round" stroke-linecap="round"/>
    <path d="M 252.56 567.77 C 249.82 566.44, 243.46 562.34, 241.04 560.45 C 238.63 558.55, 234.14 554.14, 232.41 551.97 C 230.69 549.80, 227.70 544.79, 226.67 542.34 C 225.64 539.89, 224.16 534.28, 223.82 531.56 C 223.49 528.83, 223.58 522.32, 223.86 519.62 C 224.15 516.92, 225.36 511.42, 226.19 509.05 C 227.02 506.68, 229.42 501.90, 230.80 499.85 C 232.18 497.81, 235.76 493.74, 237.69 492.03 C 239.62 490.31, 244.58 486.76, 246.87 485.57 C 249.17 484.38, 254.33 482.58, 256.81 482.11 C 259.28 481.64, 264.84 481.41, 267.50 481.66 C 270.15 481.91, 276.10 483.23, 278.94 484.20 C 281.78 485.17, 288.54 488.19, 291.13 489.75 C 293.73 491.30, 298.61 495.16, 300.53 497.17 C 302.45 499.18, 305.88 504.02, 307.13 506.47 C 308.38 508.93, 310.36 514.75, 310.93 517.65 C 311.51 520.56, 312.05 527.76, 311.94 530.72 C 311.82 533.67, 310.79 539.69, 309.96 542.29 C 309.13 544.89, 306.56 550.13, 305.02 552.37 C 303.47 554.62, 299.35 559.09, 297.09 560.97 C 294.83 562.86, 288.83 566.81, 286.19 568.08 C 283.56 569.36, 277.81 571.18, 275.14 571.59 C 272.47 572.00, 266.64 571.94, 263.93 571.48 C 261.22 571.02, 255.31 569.09, 252.56 567.77 Z" fill="none" stroke="#c8949a" stroke-width="2.36" stroke-opacity="0.32" stroke-linejoin="round" stroke-linecap="round"/>
    <path d="M 252.56 567.77 C 249.82 566.44, 243.46 562.34, 241.04 560.45 C 238.63 558.55, 234.14 554.14, 232.41 551.97 C 230.69 549.80, 227.70 544.79, 226.67 542.34 C 225.64 539.89, 224.16 534.28, 223.82 531.56 C 223.49 528.83, 223.58 522.32, 223.86 519.62 C 224.15 516.92, 225.36 511.42, 226.19 509.05 C 227.02 506.68, 229.42 501.90, 230.80 499.85 C 232.18 497.81, 235.76 493.74, 237.69 492.03 C 239.62 490.31, 244.58 486.76, 246.87 485.57 C 249.17 484.38, 254.33 482.58, 256.81 482.11 C 259.28 481.64, 264.84 481.41, 267.50 481.66 C 270.15 481.91, 276.10 483.23, 278.94 484.20 C 281.78 485.17, 288.54 488.19, 291.13 489.75 C 293.73 491.30, 298.61 495.16, 300.53 497.17 C 302.45 499.18, 305.88 504.02, 307.13 506.47 C 308.38 508.93, 310.36 514.75, 310.93 517.65 C 311.51 520.56, 312.05 527.76, 311.94 530.72 C 311.82 533.67, 310.79 539.69, 309.96 542.29 C 309.13 544.89, 306.56 550.13, 305.02 552.37 C 303.47 554.62, 299.35 559.09, 297.09 560.97 C 294.83 562.86, 288.83 566.81, 286.19 568.08 C 283.56 569.36, 277.81 571.18, 275.14 571.59 C 272.47 572.00, 266.64 571.94, 263.93 571.48 C 261.22 571.02, 255.31 569.09, 252.56 567.77 Z" fill="none" stroke="#d08080" stroke-width="0.96" stroke-opacity="0.72" stroke-linejoin="round" stroke-linecap="round"/>
  </g>
  <g id="adipocytes-nuclei">
    <circle cx="160.26" cy="502.44" r="3.22" fill="#7b3f3f" opacity="0.58"/>
  </g>
</svg>
