<?xml version="1.0" encoding="UTF-8"?>
<svg xmlns="http://www.w3.org/2000/svg" width="223" height="207" viewBox="376.66 150.89 222.77 206.62" fill="none" role="img" aria-label="Three adipocytes — triangle up">
  <title>Three adipocytes — triangle up</title>
  <desc>Extracted from adipocyte-pattern.svg — original procedural illustration, not derived from any photograph.</desc>
  <defs>
    <radialGradient id="cell-grad-25" gradientUnits="userSpaceOnUse" cx="442.16" cy="216.07" r="47.59">
      <stop offset="0%" stop-color="#f5d088"/>
      <stop offset="38%" stop-color="#fde8a8"/>
      <stop offset="56%" stop-color="#ffecc8"/>
      <stop offset="64%" stop-color="#fff0d8"/>
      <stop offset="72%" stop-color="#ffffff"/>
      <stop offset="78%" stop-color="#feeef2"/>
      <stop offset="88%" stop-color="#f8dcc8"/>
      <stop offset="96%" stop-color="#f0c8a0"/>
      <stop offset="100%" stop-color="#eabb90"/>
    </radialGradient>
    <radialGradient id="cell-grad-26" gradientUnits="userSpaceOnUse" cx="534.03" cy="218.41" r="46.66">
      <stop offset="0%" stop-color="#f5d088"/>
      <stop offset="38%" stop-color="#fde8a8"/>
      <stop offset="56%" stop-color="#ffecc8"/>
      <stop offset="64%" stop-color="#fff0d8"/>
      <stop offset="72%" stop-color="#ffffff"/>
      <stop offset="78%" stop-color="#feeef2"/>
      <stop offset="88%" stop-color="#f8dcc8"/>
      <stop offset="96%" stop-color="#f0c8a0"/>
      <stop offset="100%" stop-color="#eabb90"/>
    </radialGradient>
    <radialGradient id="cell-grad-36" gradientUnits="userSpaceOnUse" cx="485.00" cy="292.55" r="46.81">
      <stop offset="0%" stop-color="#f5d088"/>
      <stop offset="38%" stop-color="#fde8a8"/>
      <stop offset="56%" stop-color="#ffecc8"/>
      <stop offset="64%" stop-color="#fff0d8"/>
      <stop offset="72%" stop-color="#ffffff"/>
      <stop offset="78%" stop-color="#feeef2"/>
      <stop offset="88%" stop-color="#f8dcc8"/>
      <stop offset="96%" stop-color="#f0c8a0"/>
      <stop offset="100%" stop-color="#eabb90"/>
    </radialGradient>
    <filter id="soft-fill" x="-6%" y="-6%" width="112%" height="112%">
      <feGaussianBlur in="SourceGraphic" stdDeviation="0.55"/>
    </filter>
    <filter id="membrane-soften" x="-6%" y="-6%" width="112%" height="112%">
      <feGaussianBlur in="SourceGraphic" stdDeviation="0.42"/>
    </filter>
  </defs>
  <g id="adipocytes-fill" filter="url(#soft-fill)">
    <path d="M 422.74 255.29 C 421.40 254.60, 418.65 252.96, 417.39 252.12 C 416.14 251.29, 413.79 249.52, 412.69 248.60 C 411.60 247.67, 409.57 245.73, 408.64 244.72 C 407.70 243.70, 406.00 241.59, 405.23 240.48 C 404.46 239.38, 403.08 237.09, 402.47 235.90 C 401.86 234.71, 400.80 232.23, 400.35 230.95 C 399.90 229.67, 399.17 227.03, 398.89 225.66 C 398.60 224.29, 398.19 221.46, 398.07 220.01 C 397.94 218.55, 397.85 215.46, 397.89 214.00 C 397.94 212.54, 398.20 209.69, 398.41 208.31 C 398.63 206.93, 399.24 204.24, 399.63 202.93 C 400.02 201.63, 400.97 199.09, 401.53 197.87 C 402.09 196.64, 403.39 194.26, 404.13 193.11 C 404.86 191.96, 406.51 189.74, 407.42 188.67 C 408.33 187.60, 410.32 185.54, 411.40 184.55 C 412.48 183.55, 414.82 181.65, 416.08 180.73 C 417.33 179.82, 420.09 177.99, 421.44 177.23 C 422.79 176.47, 425.52 175.18, 426.90 174.65 C 428.27 174.12, 431.04 173.28, 432.44 172.98 C 433.83 172.68, 436.65 172.31, 438.07 172.23 C 439.48 172.16, 442.34 172.24, 443.78 172.40 C 445.22 172.56, 448.12 173.10, 449.58 173.48 C 451.05 173.87, 453.99 174.87, 455.47 175.48 C 456.96 176.10, 459.94 177.55, 461.45 178.40 C 462.95 179.24, 466.10 181.25, 467.51 182.23 C 468.93 183.22, 471.57 185.24, 472.79 186.27 C 474.01 187.31, 476.25 189.43, 477.27 190.52 C 478.29 191.61, 480.14 193.83, 480.96 194.97 C 481.78 196.11, 483.23 198.44, 483.86 199.63 C 484.49 200.82, 485.54 203.25, 485.97 204.50 C 486.40 205.74, 487.06 208.28, 487.29 209.57 C 487.52 210.86, 487.78 213.50, 487.82 214.85 C 487.85 216.20, 487.70 219.00, 487.55 220.34 C 487.40 221.67, 486.93 224.28, 486.62 225.56 C 486.30 226.83, 485.49 229.30, 485.01 230.51 C 484.52 231.71, 483.38 234.06, 482.73 235.20 C 482.07 236.34, 480.59 238.55, 479.77 239.62 C 478.95 240.69, 477.13 242.77, 476.14 243.77 C 475.15 244.78, 473.00 246.72, 471.84 247.66 C 470.69 248.60, 468.20 250.41, 466.87 251.28 C 465.54 252.16, 462.63 253.90, 461.23 254.64 C 459.82 255.38, 457.02 256.65, 455.62 257.18 C 454.22 257.72, 451.43 258.58, 450.05 258.91 C 448.66 259.24, 445.89 259.69, 444.51 259.82 C 443.13 259.94, 440.38 259.99, 439.01 259.91 C 437.64 259.83, 434.91 259.47, 433.55 259.19 C 432.19 258.90, 429.48 258.13, 428.13 257.65 C 426.78 257.16, 424.09 255.98, 422.74 255.29 Z" fill="url(#cell-grad-25)" opacity="0.96"/>
    <path d="M 510.43 254.46 C 509.18 253.73, 506.69 252.01, 505.54 251.15 C 504.40 250.29, 502.28 248.50, 501.31 247.57 C 500.33 246.64, 498.53 244.72, 497.71 243.72 C 496.89 242.73, 495.41 240.66, 494.76 239.60 C 494.10 238.53, 492.94 236.34, 492.45 235.20 C 491.95 234.07, 491.11 231.74, 490.78 230.54 C 490.44 229.33, 489.93 226.86, 489.76 225.59 C 489.58 224.33, 489.39 221.72, 489.38 220.38 C 489.36 219.04, 489.50 216.23, 489.64 214.90 C 489.78 213.56, 490.22 210.96, 490.51 209.70 C 490.80 208.44, 491.54 205.99, 491.98 204.80 C 492.43 203.61, 493.47 201.30, 494.07 200.18 C 494.66 199.07, 496.01 196.91, 496.76 195.86 C 497.50 194.82, 499.15 192.80, 500.05 191.83 C 500.95 190.86, 502.90 188.99, 503.95 188.09 C 505.00 187.19, 507.26 185.47, 508.46 184.64 C 509.66 183.81, 512.29 182.18, 513.58 181.48 C 514.86 180.78, 517.44 179.55, 518.74 179.03 C 520.03 178.51, 522.64 177.64, 523.94 177.29 C 525.25 176.95, 527.88 176.44, 529.20 176.27 C 530.52 176.10, 533.16 175.94, 534.50 175.95 C 535.83 175.96, 538.50 176.16, 539.84 176.35 C 541.18 176.54, 543.88 177.09, 545.23 177.46 C 546.58 177.82, 549.30 178.73, 550.67 179.28 C 552.03 179.82, 554.86 181.11, 556.15 181.80 C 557.44 182.50, 559.88 184.01, 561.02 184.83 C 562.17 185.65, 564.30 187.41, 565.29 188.36 C 566.28 189.30, 568.10 191.31, 568.94 192.38 C 569.78 193.45, 571.30 195.71, 571.99 196.91 C 572.67 198.10, 573.89 200.61, 574.42 201.93 C 574.96 203.24, 575.87 206.00, 576.25 207.45 C 576.63 208.89, 577.24 211.90, 577.47 213.46 C 577.70 215.03, 578.04 218.41, 578.08 219.98 C 578.12 221.55, 577.97 224.58, 577.79 226.04 C 577.60 227.50, 577.01 230.31, 576.60 231.66 C 576.19 233.00, 575.14 235.59, 574.51 236.82 C 573.87 238.05, 572.38 240.41, 571.52 241.53 C 570.66 242.65, 568.72 244.78, 567.63 245.79 C 566.55 246.80, 564.15 248.70, 562.84 249.60 C 561.54 250.49, 558.69 252.17, 557.16 252.95 C 555.62 253.74, 552.19 255.23, 550.57 255.86 C 548.95 256.49, 545.76 257.55, 544.20 257.99 C 542.63 258.42, 539.55 259.10, 538.04 259.34 C 536.52 259.58, 533.55 259.87, 532.09 259.92 C 530.63 259.96, 527.76 259.86, 526.36 259.72 C 524.95 259.57, 522.19 259.08, 520.83 258.74 C 519.48 258.40, 516.82 257.52, 515.52 256.99 C 514.22 256.45, 511.68 255.19, 510.43 254.46 Z" fill="url(#cell-grad-26)" opacity="0.96"/>
    <path d="M 465.70 331.29 C 464.43 330.67, 461.82 329.28, 460.63 328.53 C 459.45 327.78, 457.23 326.18, 456.19 325.32 C 455.16 324.47, 453.26 322.64, 452.38 321.67 C 451.51 320.69, 449.91 318.64, 449.20 317.56 C 448.48 316.47, 447.20 314.19, 446.63 313.00 C 446.07 311.80, 445.11 309.30, 444.70 307.99 C 444.30 306.68, 443.64 303.95, 443.39 302.53 C 443.14 301.11, 442.80 298.15, 442.71 296.62 C 442.62 295.08, 442.58 291.80, 442.66 290.26 C 442.73 288.71, 443.06 285.72, 443.31 284.27 C 443.57 282.82, 444.25 280.02, 444.68 278.66 C 445.11 277.31, 446.15 274.69, 446.75 273.43 C 447.36 272.17, 448.75 269.75, 449.54 268.58 C 450.32 267.41, 452.07 265.18, 453.03 264.10 C 454.00 263.03, 456.10 260.98, 457.24 260.01 C 458.38 259.03, 460.84 257.17, 462.16 256.28 C 463.47 255.40, 466.39 253.67, 467.78 252.94 C 469.18 252.21, 471.94 250.95, 473.31 250.42 C 474.68 249.90, 477.40 249.06, 478.75 248.74 C 480.09 248.42, 482.76 247.99, 484.09 247.88 C 485.41 247.77, 488.03 247.76, 489.33 247.86 C 490.63 247.96, 493.21 248.36, 494.48 248.66 C 495.76 248.97, 498.29 249.79, 499.54 250.30 C 500.79 250.81, 503.27 252.04, 504.50 252.76 C 505.73 253.48, 508.23 255.18, 509.37 256.06 C 510.51 256.94, 512.63 258.82, 513.62 259.82 C 514.60 260.81, 516.42 262.92, 517.25 264.04 C 518.08 265.15, 519.59 267.49, 520.26 268.72 C 520.94 269.95, 522.13 272.53, 522.66 273.87 C 523.18 275.22, 524.07 278.02, 524.43 279.48 C 524.80 280.95, 525.38 283.98, 525.59 285.56 C 525.80 287.14, 526.07 290.41, 526.13 292.10 C 526.19 293.79, 526.16 297.43, 526.06 299.11 C 525.96 300.78, 525.59 303.98, 525.33 305.50 C 525.06 307.03, 524.37 309.93, 523.95 311.30 C 523.52 312.67, 522.50 315.27, 521.91 316.49 C 521.32 317.71, 519.98 320.00, 519.23 321.07 C 518.47 322.14, 516.80 324.13, 515.89 325.05 C 514.97 325.97, 512.98 327.66, 511.90 328.42 C 510.82 329.19, 508.50 330.58, 507.26 331.19 C 506.01 331.81, 503.28 332.89, 501.96 333.36 C 500.64 333.82, 498.01 334.60, 496.69 334.91 C 495.38 335.22, 492.76 335.68, 491.46 335.84 C 490.15 336.00, 487.55 336.16, 486.25 336.16 C 484.95 336.16, 482.36 336.02, 481.07 335.86 C 479.78 335.71, 477.20 335.26, 475.92 334.95 C 474.63 334.65, 472.07 333.89, 470.79 333.43 C 469.52 332.97, 466.97 331.90, 465.70 331.29 Z" fill="url(#cell-grad-36)" opacity="0.96"/>
  </g>
  <g id="adipocytes-membranes" filter="url(#membrane-soften)">
    <path d="M 425.08 257.70 C 422.44 256.55, 416.47 252.96, 414.16 251.23 C 411.86 249.51, 407.56 245.39, 405.89 243.32 C 404.22 241.24, 401.29 236.38, 400.26 233.96 C 399.22 231.54, 397.66 225.92, 397.26 223.15 C 396.86 220.38, 396.66 213.68, 396.91 210.90 C 397.17 208.11, 398.45 202.40, 399.39 199.92 C 400.32 197.44, 403.07 192.40, 404.69 190.22 C 406.30 188.05, 410.52 183.67, 412.81 181.80 C 415.10 179.94, 421.09 175.93, 423.76 174.66 C 426.43 173.40, 432.31 171.63, 435.07 171.26 C 437.82 170.89, 443.89 171.07, 446.73 171.60 C 449.57 172.13, 455.82 174.25, 458.75 175.68 C 461.67 177.11, 468.54 181.52, 471.12 183.50 C 473.70 185.48, 478.46 189.99, 480.26 192.17 C 482.07 194.35, 485.15 199.29, 486.18 201.68 C 487.21 204.06, 488.61 209.44, 488.87 212.03 C 489.13 214.61, 488.79 220.66, 488.33 223.22 C 487.88 225.78, 486.17 231.03, 485.05 233.33 C 483.93 235.62, 480.80 240.31, 479.02 242.35 C 477.25 244.38, 472.69 248.51, 470.25 250.28 C 467.82 252.06, 461.48 255.89, 458.73 257.13 C 455.99 258.38, 450.07 260.21, 447.36 260.65 C 444.65 261.10, 438.82 261.20, 436.15 260.84 C 433.47 260.49, 427.72 258.86, 425.08 257.70 Z" fill="none" stroke="#c8949a" stroke-width="2.35" stroke-opacity="0.32" stroke-linejoin="round" stroke-linecap="round"/>
    <path d="M 425.08 257.70 C 422.44 256.55, 416.47 252.96, 414.16 251.23 C 411.86 249.51, 407.56 245.39, 405.89 243.32 C 404.22 241.24, 401.29 236.38, 400.26 233.96 C 399.22 231.54, 397.66 225.92, 397.26 223.15 C 396.86 220.38, 396.66 213.68, 396.91 210.90 C 397.17 208.11, 398.45 202.40, 399.39 199.92 C 400.32 197.44, 403.07 192.40, 404.69 190.22 C 406.30 188.05, 410.52 183.67, 412.81 181.80 C 415.10 179.94, 421.09 175.93, 423.76 174.66 C 426.43 173.40, 432.31 171.63, 435.07 171.26 C 437.82 170.89, 443.89 171.07, 446.73 171.60 C 449.57 172.13, 455.82 174.25, 458.75 175.68 C 461.67 177.11, 468.54 181.52, 471.12 183.50 C 473.70 185.48, 478.46 189.99, 480.26 192.17 C 482.07 194.35, 485.15 199.29, 486.18 201.68 C 487.21 204.06, 488.61 209.44, 488.87 212.03 C 489.13 214.61, 488.79 220.66, 488.33 223.22 C 487.88 225.78, 486.17 231.03, 485.05 233.33 C 483.93 235.62, 480.80 240.31, 479.02 242.35 C 477.25 244.38, 472.69 248.51, 470.25 250.28 C 467.82 252.06, 461.48 255.89, 458.73 257.13 C 455.99 258.38, 450.07 260.21, 447.36 260.65 C 444.65 261.10, 438.82 261.20, 436.15 260.84 C 433.47 260.49, 427.72 258.86, 425.08 257.70 Z" fill="none" stroke="#d08080" stroke-width="0.95" stroke-opacity="0.72" stroke-linejoin="round" stroke-linecap="round"/>
    <path d="M 512.44 256.88 C 509.94 255.64, 504.55 251.88, 502.48 250.13 C 500.40 248.38, 496.58 244.29, 495.14 242.27 C 493.69 240.25, 491.24 235.59, 490.42 233.30 C 489.61 231.02, 488.52 225.77, 488.33 223.22 C 488.15 220.67, 488.45 214.57, 488.87 212.03 C 489.30 209.48, 490.86 204.28, 491.88 202.02 C 492.90 199.76, 495.76 195.17, 497.37 193.20 C 498.99 191.22, 503.13 187.25, 505.33 185.57 C 507.54 183.88, 513.24 180.32, 515.77 179.12 C 518.30 177.92, 523.82 176.08, 526.40 175.57 C 528.97 175.07, 534.59 174.74, 537.21 174.93 C 539.83 175.13, 545.55 176.30, 548.21 177.19 C 550.87 178.08, 557.01 180.87, 559.40 182.35 C 561.78 183.83, 566.31 187.58, 568.10 189.55 C 569.89 191.52, 573.12 196.32, 574.31 198.78 C 575.51 201.24, 577.44 207.09, 578.04 210.04 C 578.64 212.99, 579.43 220.37, 579.28 223.34 C 579.14 226.31, 577.88 232.26, 576.86 234.79 C 575.83 237.32, 572.66 242.32, 570.76 244.40 C 568.85 246.49, 563.77 250.53, 560.99 252.17 C 558.20 253.82, 550.67 257.06, 547.55 258.10 C 544.43 259.14, 537.89 260.58, 534.98 260.86 C 532.06 261.14, 525.98 260.93, 523.27 260.45 C 520.57 259.97, 514.94 258.11, 512.44 256.88 Z" fill="none" stroke="#c8949a" stroke-width="2.35" stroke-opacity="0.32" stroke-linejoin="round" stroke-linecap="round"/>
    <path d="M 512.44 256.88 C 509.94 255.64, 504.55 251.88, 502.48 250.13 C 500.40 248.38, 496.58 244.29, 495.14 242.27 C 493.69 240.25, 491.24 235.59, 490.42 233.30 C 489.61 231.02, 488.52 225.77, 488.33 223.22 C 488.15 220.67, 488.45 214.57, 488.87 212.03 C 489.30 209.48, 490.86 204.28, 491.88 202.02 C 492.90 199.76, 495.76 195.17, 497.37 193.20 C 498.99 191.22, 503.13 187.25, 505.33 185.57 C 507.54 183.88, 513.24 180.32, 515.77 179.12 C 518.30 177.92, 523.82 176.08, 526.40 175.57 C 528.97 175.07, 534.59 174.74, 537.21 174.93 C 539.83 175.13, 545.55 176.30, 548.21 177.19 C 550.87 178.08, 557.01 180.87, 559.40 182.35 C 561.78 183.83, 566.31 187.58, 568.10 189.55 C 569.89 191.52, 573.12 196.32, 574.31 198.78 C 575.51 201.24, 577.44 207.09, 578.04 210.04 C 578.64 212.99, 579.43 220.37, 579.28 223.34 C 579.14 226.31, 577.88 232.26, 576.86 234.79 C 575.83 237.32, 572.66 242.32, 570.76 244.40 C 568.85 246.49, 563.77 250.53, 560.99 252.17 C 558.20 253.82, 550.67 257.06, 547.55 258.10 C 544.43 259.14, 537.89 260.58, 534.98 260.86 C 532.06 261.14, 525.98 260.93, 523.27 260.45 C 520.57 259.97, 514.94 258.11, 512.44 256.88 Z" fill="none" stroke="#d08080" stroke-width="0.95" stroke-opacity="0.72" stroke-linejoin="round" stroke-linecap="round"/>
    <path d="M 467.83 333.62 C 465.33 332.57, 459.64 329.55, 457.46 327.98 C 455.28 326.40, 451.22 322.50, 449.65 320.49 C 448.09 318.47, 445.36 313.61, 444.41 311.15 C 443.46 308.69, 442.07 302.88, 441.73 299.97 C 441.40 297.07, 441.30 289.89, 441.62 286.95 C 441.94 284.00, 443.40 278.03, 444.42 275.46 C 445.44 272.89, 448.40 267.73, 450.12 265.53 C 451.84 263.33, 456.32 258.96, 458.73 257.13 C 461.15 255.30, 467.53 251.52, 470.25 250.28 C 472.97 249.05, 478.76 247.25, 481.38 246.83 C 484.01 246.41, 489.59 246.39, 492.12 246.78 C 494.65 247.18, 500.04 248.92, 502.48 250.13 C 504.91 251.34, 510.35 255.03, 512.44 256.88 C 514.53 258.72, 518.39 263.22, 519.87 265.52 C 521.35 267.82, 523.90 273.31, 524.78 276.06 C 525.65 278.82, 526.89 285.29, 527.15 288.51 C 527.42 291.72, 527.35 299.70, 526.99 302.85 C 526.64 305.99, 525.16 312.16, 524.17 314.71 C 523.17 317.26, 520.31 322.14, 518.67 324.10 C 517.03 326.05, 512.78 329.64, 510.50 331.01 C 508.21 332.37, 502.24 334.68, 499.65 335.44 C 497.07 336.20, 491.49 337.19, 488.93 337.35 C 486.37 337.51, 480.86 337.19, 478.32 336.74 C 475.79 336.30, 470.34 334.67, 467.83 333.62 Z" fill="none" stroke="#c8949a" stroke-width="2.37" stroke-opacity="0.32" stroke-linejoin="round" stroke-linecap="round"/>
    <path d="M 467.83 333.62 C 465.33 332.57, 459.64 329.55, 457.46 327.98 C 455.28 326.40, 451.22 322.50, 449.65 320.49 C 448.09 318.47, 445.36 313.61, 444.41 311.15 C 443.46 308.69, 442.07 302.88, 441.73 299.97 C 441.40 297.07, 441.30 289.89, 441.62 286.95 C 441.94 284.00, 443.40 278.03, 444.42 275.46 C 445.44 272.89, 448.40 267.73, 450.12 265.53 C 451.84 263.33, 456.32 258.96, 458.73 257.13 C 461.15 255.30, 467.53 251.52, 470.25 250.28 C 472.97 249.05, 478.76 247.25, 481.38 246.83 C 484.01 246.41, 489.59 246.39, 492.12 246.78 C 494.65 247.18, 500.04 248.92, 502.48 250.13 C 504.91 251.34, 510.35 255.03, 512.44 256.88 C 514.53 258.72, 518.39 263.22, 519.87 265.52 C 521.35 267.82, 523.90 273.31, 524.78 276.06 C 525.65 278.82, 526.89 285.29, 527.15 288.51 C 527.42 291.72, 527.35 299.70, 526.99 302.85 C 526.64 305.99, 525.16 312.16, 524.17 314.71 C 523.17 317.26, 520.31 322.14, 518.67 324.10 C 517.03 326.05, 512.78 329.64, 510.50 331.01 C 508.21 332.37, 502.24 334.68, 499.65 335.44 C 497.07 336.20, 491.49 337.19, 488.93 337.35 C 486.37 337.51, 480.86 337.19, 478.32 336.74 C 475.79 336.30, 470.34 334.67, 467.83 333.62 Z" fill="none" stroke="#d08080" stroke-width="0.97" stroke-opacity="0.72" stroke-linejoin="round" stroke-linecap="round"/>
  </g>
  <g id="adipocytes-nuclei">
    <circle cx="472.51" cy="212.64" r="3.30" fill="#7b3f3f" opacity="0.58"/>
    <circle cx="505.59" cy="225.38" r="3.24" fill="#7b3f3f" opacity="0.58"/>
  </g>
</svg>
