<?xml version="1.0" encoding="UTF-8"?>
<svg xmlns="http://www.w3.org/2000/svg" width="214" height="208" viewBox="378.75 304.92 214.14 207.78" fill="none" role="img" aria-label="Three adipocytes — triangle">
  <title>Three adipocytes — triangle</title>
  <desc>Extracted from adipocyte-pattern.svg — original procedural illustration, not derived from any photograph.</desc>
  <defs>
    <radialGradient id="cell-grad-47" gradientUnits="userSpaceOnUse" cx="440.78" cy="371.97" r="47.23">
      <stop offset="0%" stop-color="#f5d088"/>
      <stop offset="38%" stop-color="#fde8a8"/>
      <stop offset="56%" stop-color="#ffecc8"/>
      <stop offset="64%" stop-color="#fff0d8"/>
      <stop offset="72%" stop-color="#ffffff"/>
      <stop offset="78%" stop-color="#feeef2"/>
      <stop offset="88%" stop-color="#f8dcc8"/>
      <stop offset="96%" stop-color="#f0c8a0"/>
      <stop offset="100%" stop-color="#eabb90"/>
    </radialGradient>
    <radialGradient id="cell-grad-48" gradientUnits="userSpaceOnUse" cx="525.29" cy="373.71" r="47.30">
      <stop offset="0%" stop-color="#f5d088"/>
      <stop offset="38%" stop-color="#fde8a8"/>
      <stop offset="56%" stop-color="#ffecc8"/>
      <stop offset="64%" stop-color="#fff0d8"/>
      <stop offset="72%" stop-color="#ffffff"/>
      <stop offset="78%" stop-color="#feeef2"/>
      <stop offset="88%" stop-color="#f8dcc8"/>
      <stop offset="96%" stop-color="#f0c8a0"/>
      <stop offset="100%" stop-color="#eabb90"/>
    </radialGradient>
    <radialGradient id="cell-grad-58" gradientUnits="userSpaceOnUse" cx="479.54" cy="449.71" r="46.59">
      <stop offset="0%" stop-color="#f5d088"/>
      <stop offset="38%" stop-color="#fde8a8"/>
      <stop offset="56%" stop-color="#ffecc8"/>
      <stop offset="64%" stop-color="#fff0d8"/>
      <stop offset="72%" stop-color="#ffffff"/>
      <stop offset="78%" stop-color="#feeef2"/>
      <stop offset="88%" stop-color="#f8dcc8"/>
      <stop offset="96%" stop-color="#f0c8a0"/>
      <stop offset="100%" stop-color="#eabb90"/>
    </radialGradient>
    <filter id="soft-fill" x="-6%" y="-6%" width="112%" height="112%">
      <feGaussianBlur in="SourceGraphic" stdDeviation="0.55"/>
    </filter>
    <filter id="membrane-soften" x="-6%" y="-6%" width="112%" height="112%">
      <feGaussianBlur in="SourceGraphic" stdDeviation="0.42"/>
    </filter>
  </defs>
  <g id="adipocytes-fill" filter="url(#soft-fill)">
    <path d="M 418.30 412.44 C 417.17 411.77, 414.89 410.22, 413.85 409.39 C 412.81 408.57, 410.90 406.81, 410.01 405.87 C 409.13 404.93, 407.52 402.93, 406.79 401.87 C 406.07 400.82, 404.76 398.58, 404.19 397.40 C 403.62 396.22, 402.62 393.75, 402.20 392.45 C 401.78 391.15, 401.10 388.44, 400.83 387.02 C 400.56 385.60, 400.19 382.65, 400.07 381.11 C 399.96 379.58, 399.89 376.39, 399.93 374.73 C 399.98 373.08, 400.22 369.52, 400.41 367.87 C 400.60 366.22, 401.12 363.04, 401.45 361.51 C 401.78 359.98, 402.58 357.04, 403.05 355.64 C 403.52 354.23, 404.60 351.54, 405.21 350.26 C 405.83 348.98, 407.19 346.53, 407.94 345.38 C 408.69 344.22, 410.34 342.02, 411.23 340.99 C 412.12 339.95, 414.05 338.00, 415.08 337.09 C 416.11 336.18, 418.32 334.48, 419.49 333.69 C 420.66 332.90, 423.22 331.42, 424.47 330.78 C 425.71 330.15, 428.21 329.05, 429.45 328.59 C 430.70 328.12, 433.20 327.38, 434.45 327.10 C 435.71 326.81, 438.21 326.42, 439.47 326.31 C 440.72 326.21, 443.24 326.17, 444.49 326.24 C 445.75 326.31, 448.27 326.63, 449.53 326.88 C 450.79 327.13, 453.32 327.80, 454.59 328.22 C 455.85 328.65, 458.38 329.68, 459.65 330.28 C 460.92 330.88, 463.54 332.28, 464.73 333.04 C 465.91 333.80, 468.12 335.47, 469.13 336.37 C 470.15 337.28, 472.02 339.23, 472.87 340.28 C 473.72 341.32, 475.25 343.56, 475.94 344.75 C 476.62 345.94, 477.82 348.46, 478.33 349.79 C 478.85 351.12, 479.71 353.93, 480.06 355.40 C 480.40 356.87, 480.93 359.96, 481.11 361.58 C 481.29 363.20, 481.48 366.57, 481.49 368.33 C 481.51 370.09, 481.36 373.89, 481.21 375.65 C 481.05 377.41, 480.56 380.78, 480.23 382.40 C 479.90 384.01, 479.07 387.10, 478.57 388.57 C 478.07 390.04, 476.89 392.84, 476.22 394.17 C 475.54 395.50, 474.03 398.01, 473.18 399.19 C 472.33 400.38, 470.47 402.60, 469.45 403.64 C 468.44 404.68, 466.23 406.62, 465.04 407.52 C 463.85 408.42, 461.30 410.07, 459.94 410.82 C 458.58 411.57, 455.58 412.96, 454.15 413.55 C 452.72 414.14, 449.91 415.14, 448.53 415.55 C 447.14 415.97, 444.41 416.61, 443.07 416.84 C 441.73 417.07, 439.08 417.35, 437.78 417.40 C 436.48 417.45, 433.92 417.37, 432.66 417.24 C 431.40 417.11, 428.93 416.67, 427.71 416.36 C 426.49 416.05, 424.10 415.25, 422.92 414.76 C 421.75 414.27, 419.44 413.11, 418.30 412.44 Z" fill="url(#cell-grad-47)" opacity="0.96"/>
    <path d="M 505.71 414.32 C 504.39 413.70, 501.71 412.20, 500.49 411.40 C 499.27 410.60, 497.00 408.87, 495.95 407.93 C 494.90 407.00, 492.98 404.99, 492.10 403.92 C 491.23 402.85, 489.65 400.57, 488.94 399.36 C 488.24 398.15, 487.00 395.60, 486.47 394.26 C 485.94 392.91, 485.05 390.09, 484.69 388.61 C 484.33 387.13, 483.79 384.03, 483.60 382.42 C 483.41 380.80, 483.21 377.43, 483.20 375.68 C 483.18 373.93, 483.33 370.14, 483.48 368.40 C 483.63 366.65, 484.09 363.33, 484.39 361.75 C 484.70 360.17, 485.46 357.17, 485.93 355.75 C 486.39 354.33, 487.47 351.65, 488.08 350.39 C 488.70 349.13, 490.09 346.77, 490.87 345.67 C 491.64 344.57, 493.34 342.53, 494.27 341.59 C 495.20 340.65, 497.22 338.93, 498.31 338.15 C 499.39 337.37, 501.72 335.97, 502.96 335.35 C 504.20 334.73, 506.92 333.65, 508.24 333.19 C 509.56 332.74, 512.21 331.98, 513.53 331.68 C 514.86 331.38, 517.51 330.94, 518.84 330.81 C 520.16 330.67, 522.82 330.55, 524.15 330.58 C 525.48 330.60, 528.15 330.81, 529.48 330.99 C 530.81 331.17, 533.48 331.70, 534.82 332.05 C 536.15 332.39, 538.83 333.24, 540.17 333.75 C 541.51 334.25, 544.19 335.42, 545.53 336.09 C 546.88 336.75, 549.64 338.29, 550.91 339.07 C 552.17 339.85, 554.55 341.48, 555.65 342.32 C 556.76 343.17, 558.82 344.93, 559.77 345.84 C 560.72 346.75, 562.47 348.65, 563.26 349.63 C 564.05 350.61, 565.48 352.63, 566.12 353.68 C 566.75 354.72, 567.87 356.88, 568.35 358.00 C 568.83 359.11, 569.63 361.40, 569.95 362.58 C 570.27 363.76, 570.76 366.19, 570.92 367.43 C 571.08 368.68, 571.28 371.28, 571.26 372.55 C 571.25 373.82, 571.02 376.32, 570.80 377.56 C 570.59 378.80, 569.96 381.25, 569.55 382.47 C 569.13 383.68, 568.10 386.08, 567.49 387.26 C 566.87 388.45, 565.45 390.79, 564.63 391.95 C 563.82 393.11, 561.99 395.40, 560.97 396.54 C 559.96 397.67, 557.73 399.91, 556.52 401.01 C 555.30 402.12, 552.67 404.30, 551.26 405.38 C 549.85 406.46, 546.70 408.69, 545.20 409.64 C 543.70 410.59, 540.73 412.27, 539.25 413.00 C 537.77 413.73, 534.85 414.96, 533.40 415.47 C 531.95 415.97, 529.08 416.76, 527.66 417.04 C 526.23 417.31, 523.41 417.65, 522.01 417.70 C 520.62 417.76, 517.85 417.64, 516.48 417.47 C 515.10 417.31, 512.39 416.74, 511.04 416.35 C 509.70 415.95, 507.03 414.94, 505.71 414.32 Z" fill="url(#cell-grad-48)" opacity="0.96"/>
    <path d="M 464.40 487.37 C 462.82 486.71, 459.48 485.12, 457.97 484.31 C 456.46 483.49, 453.63 481.77, 452.32 480.86 C 451.01 479.95, 448.58 478.04, 447.47 477.03 C 446.35 476.03, 444.32 473.92, 443.40 472.82 C 442.48 471.72, 440.84 469.43, 440.12 468.23 C 439.40 467.04, 438.16 464.55, 437.64 463.26 C 437.12 461.97, 436.27 459.29, 435.94 457.90 C 435.62 456.51, 435.17 453.65, 435.04 452.16 C 434.91 450.68, 434.86 447.52, 434.92 446.04 C 434.99 444.57, 435.30 441.72, 435.55 440.35 C 435.80 438.98, 436.48 436.34, 436.92 435.07 C 437.35 433.81, 438.40 431.38, 439.02 430.22 C 439.64 429.06, 441.07 426.85, 441.87 425.79 C 442.68 424.74, 444.47 422.74, 445.46 421.79 C 446.45 420.84, 448.62 419.05, 449.79 418.20 C 450.97 417.36, 453.50 415.78, 454.86 415.04 C 456.22 414.30, 459.23 412.90, 460.68 412.30 C 462.12 411.71, 464.99 410.69, 466.42 410.27 C 467.85 409.86, 470.69 409.20, 472.10 408.96 C 473.51 408.72, 476.31 408.41, 477.71 408.35 C 479.10 408.29, 481.87 408.34, 483.25 408.46 C 484.63 408.57, 487.37 408.98, 488.73 409.27 C 490.09 409.57, 492.79 410.33, 494.14 410.80 C 495.48 411.27, 498.15 412.39, 499.48 413.04 C 500.80 413.69, 503.51 415.22, 504.75 415.99 C 505.99 416.77, 508.32 418.39, 509.40 419.24 C 510.48 420.09, 512.49 421.87, 513.42 422.79 C 514.35 423.72, 516.04 425.65, 516.81 426.65 C 517.58 427.65, 518.97 429.72, 519.58 430.80 C 520.19 431.88, 521.26 434.10, 521.72 435.25 C 522.18 436.41, 522.93 438.78, 523.23 440.01 C 523.53 441.23, 523.98 443.76, 524.12 445.06 C 524.26 446.37, 524.40 449.11, 524.38 450.42 C 524.37 451.73, 524.18 454.30, 524.01 455.56 C 523.84 456.82, 523.34 459.28, 523.01 460.48 C 522.68 461.68, 521.86 464.04, 521.37 465.18 C 520.88 466.33, 519.75 468.58, 519.10 469.67 C 518.46 470.77, 517.01 472.90, 516.20 473.94 C 515.40 474.98, 513.63 477.01, 512.67 477.99 C 511.71 478.98, 509.63 480.89, 508.51 481.83 C 507.39 482.76, 504.94 484.64, 503.71 485.44 C 502.49 486.24, 499.99 487.63, 498.71 488.22 C 497.44 488.81, 494.83 489.79, 493.51 490.17 C 492.18 490.55, 489.47 491.11, 488.10 491.28 C 486.72 491.45, 483.91 491.59, 482.48 491.56 C 481.05 491.52, 478.14 491.24, 476.66 491.00 C 475.18 490.75, 472.17 490.06, 470.63 489.60 C 469.10 489.15, 465.99 488.03, 464.40 487.37 Z" fill="url(#cell-grad-58)" opacity="0.96"/>
  </g>
  <g id="adipocytes-membranes" filter="url(#membrane-soften)">
    <path d="M 420.10 414.86 C 417.83 413.72, 412.88 410.37, 411.00 408.64 C 409.12 406.91, 405.70 402.67, 404.42 400.47 C 403.15 398.28, 401.03 393.02, 400.36 390.36 C 399.69 387.70, 398.89 381.42, 398.82 378.29 C 398.75 375.16, 399.28 367.40, 399.79 364.28 C 400.30 361.16, 402.00 354.92, 403.06 352.29 C 404.12 349.65, 407.02 344.46, 408.63 342.31 C 410.24 340.16, 414.33 336.02, 416.49 334.36 C 418.66 332.69, 424.21 329.50, 426.66 328.42 C 429.10 327.34, 434.42 325.76, 436.87 325.37 C 439.33 324.99, 444.67 324.92, 447.14 325.23 C 449.61 325.54, 454.98 326.97, 457.46 327.98 C 459.94 328.98, 465.67 331.98, 467.83 333.62 C 469.99 335.25, 473.96 339.40, 475.47 341.59 C 476.97 343.78, 479.51 349.14, 480.36 351.89 C 481.20 354.64, 482.32 361.21, 482.51 364.51 C 482.70 367.82, 482.40 376.16, 481.93 379.47 C 481.45 382.78, 479.68 389.33, 478.53 392.08 C 477.38 394.82, 474.15 400.16, 472.32 402.34 C 470.49 404.52, 465.81 408.64, 463.30 410.26 C 460.80 411.88, 454.23 414.85, 451.48 415.83 C 448.72 416.82, 442.93 418.18, 440.33 418.46 C 437.74 418.73, 432.30 418.56, 429.87 418.13 C 427.45 417.70, 422.36 416.00, 420.10 414.86 Z" fill="none" stroke="#c8949a" stroke-width="2.35" stroke-opacity="0.32" stroke-linejoin="round" stroke-linecap="round"/>
    <path d="M 420.10 414.86 C 417.83 413.72, 412.88 410.37, 411.00 408.64 C 409.12 406.91, 405.70 402.67, 404.42 400.47 C 403.15 398.28, 401.03 393.02, 400.36 390.36 C 399.69 387.70, 398.89 381.42, 398.82 378.29 C 398.75 375.16, 399.28 367.40, 399.79 364.28 C 400.30 361.16, 402.00 354.92, 403.06 352.29 C 404.12 349.65, 407.02 344.46, 408.63 342.31 C 410.24 340.16, 414.33 336.02, 416.49 334.36 C 418.66 332.69, 424.21 329.50, 426.66 328.42 C 429.10 327.34, 434.42 325.76, 436.87 325.37 C 439.33 324.99, 444.67 324.92, 447.14 325.23 C 449.61 325.54, 454.98 326.97, 457.46 327.98 C 459.94 328.98, 465.67 331.98, 467.83 333.62 C 469.99 335.25, 473.96 339.40, 475.47 341.59 C 476.97 343.78, 479.51 349.14, 480.36 351.89 C 481.20 354.64, 482.32 361.21, 482.51 364.51 C 482.70 367.82, 482.40 376.16, 481.93 379.47 C 481.45 382.78, 479.68 389.33, 478.53 392.08 C 477.38 394.82, 474.15 400.16, 472.32 402.34 C 470.49 404.52, 465.81 408.64, 463.30 410.26 C 460.80 411.88, 454.23 414.85, 451.48 415.83 C 448.72 416.82, 442.93 418.18, 440.33 418.46 C 437.74 418.73, 432.30 418.56, 429.87 418.13 C 427.45 417.70, 422.36 416.00, 420.10 414.86 Z" fill="none" stroke="#d08080" stroke-width="0.95" stroke-opacity="0.72" stroke-linejoin="round" stroke-linecap="round"/>
    <path d="M 507.87 416.91 C 505.25 415.91, 499.38 412.61, 497.14 410.90 C 494.91 409.19, 490.80 404.91, 489.24 402.66 C 487.68 400.42, 485.05 394.97, 484.17 392.18 C 483.29 389.40, 482.12 382.79, 481.93 379.47 C 481.73 376.15, 482.06 367.79, 482.51 364.51 C 482.96 361.24, 484.60 354.83, 485.66 352.19 C 486.73 349.55, 489.70 344.51, 491.38 342.50 C 493.06 340.49, 497.36 336.82, 499.65 335.44 C 501.95 334.06, 507.89 331.75, 510.50 331.01 C 513.10 330.26, 518.77 329.33, 521.39 329.21 C 524.01 329.10, 529.69 329.54, 532.33 330.06 C 534.96 330.58, 540.67 332.40, 543.31 333.55 C 545.96 334.71, 552.01 338.08, 554.35 339.68 C 556.69 341.28, 561.09 345.04, 562.81 346.90 C 564.52 348.77, 567.58 353.09, 568.68 355.22 C 569.77 357.35, 571.48 362.25, 571.96 364.64 C 572.44 367.03, 572.89 372.68, 572.66 375.15 C 572.44 377.62, 571.10 382.85, 570.08 385.22 C 569.07 387.58, 566.02 392.59, 564.21 394.85 C 562.41 397.11, 557.65 401.88, 555.06 404.04 C 552.47 406.19, 545.56 411.13, 542.63 412.79 C 539.69 414.44, 533.45 417.08, 530.61 417.85 C 527.78 418.62, 521.76 419.33, 519.03 419.22 C 516.30 419.11, 510.50 417.90, 507.87 416.91 Z" fill="none" stroke="#c8949a" stroke-width="2.38" stroke-opacity="0.32" stroke-linejoin="round" stroke-linecap="round"/>
    <path d="M 507.87 416.91 C 505.25 415.91, 499.38 412.61, 497.14 410.90 C 494.91 409.19, 490.80 404.91, 489.24 402.66 C 487.68 400.42, 485.05 394.97, 484.17 392.18 C 483.29 389.40, 482.12 382.79, 481.93 379.47 C 481.73 376.15, 482.06 367.79, 482.51 364.51 C 482.96 361.24, 484.60 354.83, 485.66 352.19 C 486.73 349.55, 489.70 344.51, 491.38 342.50 C 493.06 340.49, 497.36 336.82, 499.65 335.44 C 501.95 334.06, 507.89 331.75, 510.50 331.01 C 513.10 330.26, 518.77 329.33, 521.39 329.21 C 524.01 329.10, 529.69 329.54, 532.33 330.06 C 534.96 330.58, 540.67 332.40, 543.31 333.55 C 545.96 334.71, 552.01 338.08, 554.35 339.68 C 556.69 341.28, 561.09 345.04, 562.81 346.90 C 564.52 348.77, 567.58 353.09, 568.68 355.22 C 569.77 357.35, 571.48 362.25, 571.96 364.64 C 572.44 367.03, 572.89 372.68, 572.66 375.15 C 572.44 377.62, 571.10 382.85, 570.08 385.22 C 569.07 387.58, 566.02 392.59, 564.21 394.85 C 562.41 397.11, 557.65 401.88, 555.06 404.04 C 552.47 406.19, 545.56 411.13, 542.63 412.79 C 539.69 414.44, 533.45 417.08, 530.61 417.85 C 527.78 418.62, 521.76 419.33, 519.03 419.22 C 516.30 419.11, 510.50 417.90, 507.87 416.91 Z" fill="none" stroke="#d08080" stroke-width="0.98" stroke-opacity="0.72" stroke-linejoin="round" stroke-linecap="round"/>
    <path d="M 467.41 489.59 C 464.37 488.50, 457.08 485.03, 454.32 483.35 C 451.56 481.67, 446.42 477.62, 444.44 475.56 C 442.45 473.50, 438.99 468.65, 437.77 466.22 C 436.56 463.79, 434.77 458.12, 434.32 455.32 C 433.88 452.52, 433.78 445.65, 434.09 442.87 C 434.40 440.09, 435.84 434.51, 436.87 432.14 C 437.90 429.77, 440.91 425.08, 442.67 423.12 C 444.42 421.17, 449.00 417.38, 451.48 415.83 C 453.95 414.29, 460.50 411.25, 463.30 410.26 C 466.11 409.27, 472.12 407.88, 474.86 407.58 C 477.60 407.28, 483.46 407.40, 486.14 407.79 C 488.81 408.19, 494.53 409.81, 497.14 410.90 C 499.75 412.00, 505.60 415.32, 507.87 416.91 C 510.14 418.49, 514.40 422.25, 516.05 424.13 C 517.71 426.01, 520.64 430.41, 521.68 432.58 C 522.73 434.76, 524.33 439.79, 524.76 442.26 C 525.20 444.73, 525.47 450.65, 525.29 453.16 C 525.11 455.67, 524.05 460.87, 523.25 463.17 C 522.45 465.47, 520.05 470.22, 518.64 472.30 C 517.22 474.38, 513.48 478.67, 511.45 480.54 C 509.42 482.42, 504.14 486.54, 501.69 487.90 C 499.25 489.26, 493.74 491.32, 491.10 491.86 C 488.46 492.40, 482.52 492.70, 479.68 492.42 C 476.83 492.15, 470.46 490.68, 467.41 489.59 Z" fill="none" stroke="#c8949a" stroke-width="2.34" stroke-opacity="0.32" stroke-linejoin="round" stroke-linecap="round"/>
    <path d="M 467.41 489.59 C 464.37 488.50, 457.08 485.03, 454.32 483.35 C 451.56 481.67, 446.42 477.62, 444.44 475.56 C 442.45 473.50, 438.99 468.65, 437.77 466.22 C 436.56 463.79, 434.77 458.12, 434.32 455.32 C 433.88 452.52, 433.78 445.65, 434.09 442.87 C 434.40 440.09, 435.84 434.51, 436.87 432.14 C 437.90 429.77, 440.91 425.08, 442.67 423.12 C 444.42 421.17, 449.00 417.38, 451.48 415.83 C 453.95 414.29, 460.50 411.25, 463.30 410.26 C 466.11 409.27, 472.12 407.88, 474.86 407.58 C 477.60 407.28, 483.46 407.40, 486.14 407.79 C 488.81 408.19, 494.53 409.81, 497.14 410.90 C 499.75 412.00, 505.60 415.32, 507.87 416.91 C 510.14 418.49, 514.40 422.25, 516.05 424.13 C 517.71 426.01, 520.64 430.41, 521.68 432.58 C 522.73 434.76, 524.33 439.79, 524.76 442.26 C 525.20 444.73, 525.47 450.65, 525.29 453.16 C 525.11 455.67, 524.05 460.87, 523.25 463.17 C 522.45 465.47, 520.05 470.22, 518.64 472.30 C 517.22 474.38, 513.48 478.67, 511.45 480.54 C 509.42 482.42, 504.14 486.54, 501.69 487.90 C 499.25 489.26, 493.74 491.32, 491.10 491.86 C 488.46 492.40, 482.52 492.70, 479.68 492.42 C 476.83 492.15, 470.46 490.68, 467.41 489.59 Z" fill="none" stroke="#d08080" stroke-width="0.94" stroke-opacity="0.72" stroke-linejoin="round" stroke-linecap="round"/>
  </g>
  <g id="adipocytes-nuclei">
    <circle cx="431.23" cy="400.17" r="3.28" fill="#7b3f3f" opacity="0.58"/>
  </g>
</svg>
