<svg width="163" height="40" viewBox="0 0 163 40" fill="none" xmlns="http://www.w3.org/2000/svg">
<path d="M0 32.0955H15.8857V28.034H4.42373V6.07884H0V32.0955Z" fill="#233051"/>
<path d="M17.6982 32.0955H21.9133V14.3431H17.6982V32.0955Z" fill="#233051"/>
<path d="M24.4234 40H28.6385V31.5912L28.707 31.5542C29.786 32.1291 31.077 32.4889 32.5733 32.4889C37.6588 32.4889 41.4924 28.5383 41.4924 23.0041C41.4924 17.4699 37.7989 13.9497 33.3394 13.9497C31.4584 13.9497 29.8545 14.5953 28.6353 15.53L28.5668 15.493V14.3431H24.4202V39.9966L24.4234 40ZM28.6385 27.8188V19.0872C29.5448 18.2971 30.8325 17.6851 32.332 17.6851C35.3964 17.6851 37.2448 20.1294 37.2448 23.2193C37.2448 26.3092 35.3638 28.8241 32.1234 28.8241C30.7999 28.8241 29.5448 28.3937 28.6385 27.8188Z" fill="#233051"/>
<path d="M51.7838 32.7614C57.1138 32.7614 61.0876 28.7032 61.0876 23.4918C61.0876 18.2804 57.117 14.2222 51.7838 14.2222C46.4505 14.2222 42.4832 18.2468 42.4832 23.4918C42.4832 28.7368 46.4538 32.7614 51.7838 32.7614ZM51.7838 28.9184C48.8564 28.9184 46.6983 26.548 46.6983 23.4918C46.6983 20.4356 48.8564 18.0316 51.7838 18.0316C54.7112 18.0316 56.8693 20.4389 56.8693 23.4918C56.8693 26.5447 54.6753 28.9184 51.7838 28.9184Z" fill="#FD893C"/>
<path d="M75.7055 32.0955H79.8521V4.64319H75.637V14.7768L75.5685 14.8138C74.4895 14.3465 73.2703 13.9497 71.7707 13.9497C66.5809 13.9497 62.8189 18.0449 62.8189 23.5085C62.8189 28.972 66.545 32.4922 70.9003 32.4922C72.8172 32.4922 74.4536 31.8467 75.6403 30.875L75.7087 30.912V32.0989L75.7055 32.0955ZM71.9435 28.8241C68.8759 28.8241 67.0666 26.4537 67.0666 23.3639C67.0666 20.274 68.9118 17.6885 72.188 17.6885C73.5115 17.6885 74.6949 18.0852 75.637 18.6232V27.3918C74.6623 28.2189 73.4431 28.8308 71.9435 28.8308V28.8241Z" fill="#233051"/>
<path d="M98.1045 30.8717V26.9177C96.3637 28.1046 94.3425 28.8577 92.2529 28.8577C89.2929 28.8577 87.0272 27.3851 86.5382 24.4398H98.9423C99.0107 24.0094 99.0466 23.2529 99.0466 22.678C99.0466 16.858 95.2846 13.9464 90.9978 13.9464C86.2579 13.9464 82.2873 17.5406 82.2873 23.2529C82.2873 28.9653 86.222 32.4855 91.7998 32.4855C94.0296 32.4855 96.5038 31.8736 98.1045 30.8683V30.8717ZM86.5741 21.4239C87.0272 18.8014 88.9441 17.4733 90.9652 17.4733C92.8821 17.4733 94.8315 18.5862 95.1118 21.4239H86.5741Z" fill="#233051"/>
<path d="M101.589 32.0955H105.804V20.9196C106.988 19.1948 108.556 18.2971 110.645 18.2971C111.099 18.2971 111.552 18.3677 111.969 18.4752V14.3061C111.588 14.1985 111.203 14.1616 110.854 14.1616C108.797 14.1616 107.02 15.1299 105.837 16.8547L105.769 16.8177V14.3398H101.586V32.0888L101.589 32.0955Z" fill="#233051"/>
<path d="M113.576 32.0955H117.791V19.7697C118.838 18.7274 120.406 17.7927 122.006 17.7927C122.913 17.7927 123.715 18.0819 124.272 18.7274C124.829 19.373 125.002 20.1664 125.002 21.6761V32.0955H129.217V20.8859C129.217 20.5262 129.217 20.1698 129.181 19.8437C130.225 18.7308 131.828 17.7961 133.432 17.7961C134.267 17.7961 135.141 18.0852 135.698 18.7308C136.22 19.3763 136.432 20.2404 136.432 21.6794V32.0989H140.647V20.9599C140.647 18.445 140.193 16.9723 139.15 15.7855C138.104 14.5986 136.572 13.9531 134.691 13.9531C132.357 13.9531 130.231 14.9248 128.383 16.6496C127.336 14.7802 125.318 13.9531 123.297 13.9531C121.067 13.9531 119.222 14.9248 117.827 16.1452L117.759 16.1083V14.3465H113.579V32.0955H113.576Z" fill="#233051"/>
<path d="M160.086 31.9879V28.5753C159.773 28.7198 159.424 28.8274 159.039 28.8274C157.924 28.8274 157.543 28.1079 157.543 27.2472V20.311C157.543 16.0713 154.756 13.9497 150.087 13.9497C147.613 13.9497 145.595 14.5617 144.34 15.3148V18.9796C145.491 18.2971 147.232 17.6851 149.253 17.6851C151.972 17.6851 153.399 18.6568 153.399 20.8456V21.9249C152.285 21.7433 151.065 21.6357 150.019 21.6357C145.732 21.6357 142.912 23.3605 142.912 27.1329C142.912 30.5455 145.491 32.4519 148.904 32.4519C151.098 32.4519 152.91 31.6248 154.061 30.6565H154.097C154.795 31.8063 156.082 32.4183 157.755 32.4183C158.661 32.4183 159.46 32.2031 160.089 31.9879H160.086ZM149.911 29.1132C148.311 29.1132 147.056 28.4307 147.056 26.8505C147.056 25.0887 148.692 24.5137 150.645 24.5137C151.483 24.5137 152.594 24.6213 153.396 24.7659V27.9264C152.594 28.6459 151.235 29.1132 149.911 29.1132Z" fill="#233051"/>
<path fill-rule="evenodd" clip-rule="evenodd" d="M29.1666 0C31.6507 0 33.6686 2.0812 33.6686 4.64319C33.6686 7.20518 31.6507 9.28638 29.1666 9.28638C26.6826 9.28638 24.6647 7.20518 24.6647 4.64319C24.6647 2.0812 26.6826 0 29.1666 0Z" fill="#FD893C"/>
<path fill-rule="evenodd" clip-rule="evenodd" d="M43.0311 0C46.6823 0 49.6455 3.05623 49.6455 6.82189C49.6455 10.5875 46.6823 13.6438 43.0311 13.6438C39.38 13.6438 36.4167 10.5875 36.4167 6.82189C36.4167 3.05623 39.38 0 43.0311 0Z" fill="#FD893C"/>
<path fill-rule="evenodd" clip-rule="evenodd" d="M19.8106 5.88384C21.2483 5.88384 22.4186 7.0875 22.4186 8.57359C22.4186 10.0597 21.2515 11.2633 19.8106 11.2633C18.3697 11.2633 17.2027 10.0597 17.2027 8.57359C17.2027 7.0875 18.3697 5.88384 19.8106 5.88384Z" fill="#FD893C"/>
<path d="M159.828 11.4247V9.20905H160.878C161.015 9.20905 161.139 9.2393 161.253 9.29646C161.367 9.35362 161.455 9.43767 161.523 9.54526C161.592 9.65285 161.624 9.78734 161.624 9.942C161.624 10.0967 161.588 10.2312 161.52 10.3421C161.452 10.4531 161.357 10.5371 161.24 10.5943C161.122 10.6514 160.995 10.6783 160.852 10.6783H160.135V10.2614H160.738C160.819 10.2614 160.888 10.2345 160.949 10.1807C161.008 10.1269 161.038 10.0462 161.038 9.942C161.038 9.83778 161.008 9.75372 160.949 9.70665C160.891 9.65958 160.822 9.63604 160.741 9.63604H160.389V11.4247H159.828ZM161.197 10.4026L161.686 11.4247H161.077L160.62 10.4026H161.197ZM160.669 12.7427C160.346 12.7427 160.046 12.6822 159.763 12.5578C159.483 12.4334 159.235 12.2619 159.02 12.04C158.808 11.8215 158.638 11.5659 158.521 11.2734C158.4 10.9843 158.342 10.6716 158.342 10.3421C158.342 10.0126 158.4 9.69993 158.521 9.41078C158.641 9.12163 158.808 8.8661 159.02 8.64756C159.232 8.42902 159.479 8.25418 159.763 8.12978C160.043 8.00538 160.346 7.94486 160.669 7.94486C160.992 7.94486 161.292 8.00538 161.575 8.12978C161.856 8.25418 162.104 8.42565 162.319 8.64756C162.531 8.8661 162.7 9.12163 162.821 9.41078C162.941 9.69993 163 10.0126 163 10.3421C163 10.6716 162.941 10.9843 162.821 11.2734C162.7 11.5626 162.534 11.8181 162.319 12.04C162.107 12.2586 161.859 12.4334 161.575 12.5578C161.295 12.6822 160.992 12.7427 160.669 12.7427ZM160.669 12.1106C160.989 12.1106 161.275 12.0299 161.533 11.8719C161.791 11.7139 161.999 11.4987 162.152 11.2331C162.306 10.9675 162.381 10.6682 162.381 10.3421C162.381 10.016 162.302 9.7201 162.149 9.45112C161.996 9.18551 161.787 8.97033 161.53 8.81231C161.272 8.65428 160.982 8.57359 160.666 8.57359C160.35 8.57359 160.066 8.65428 159.805 8.81231C159.544 8.97033 159.339 9.18551 159.186 9.45112C159.033 9.7201 158.954 10.016 158.954 10.3421C158.954 10.6682 159.029 10.9641 159.186 11.2331C159.339 11.4987 159.544 11.7139 159.805 11.8719C160.066 12.0299 160.353 12.1106 160.666 12.1106H160.669Z" fill="#233051"/>
</svg>
